<svg width="725" height="519" viewBox="0 0 725 519" fill="none" xmlns="http://www.w3.org/2000/svg">
<g clip-path="url(#clip0_1_264)">
<path d="M484.472 460.714C484.472 460.714 474.83 401.228 521.677 400.128C568.524 399.027 564.113 460.714 564.113 460.714H484.472Z" fill="#DFE9FA"/>
<path d="M547.934 460.714C547.934 460.714 555.323 397.119 611.392 399.16C667.454 401.206 674.821 460.714 674.821 460.714H547.934Z" fill="#DFE9FA"/>
<path d="M678.878 460.714C679.166 460.714 679.348 438.223 694.47 436.586C709.591 434.949 715.198 460.714 715.198 460.714H678.878Z" fill="#DFE9FA"/>
<path d="M639.077 460.714C639.077 460.714 632.335 408.541 664.587 405.084C696.839 401.627 697.038 460.714 697.038 460.714H639.077Z" fill="#09809D"/>
<path d="M469.323 460.714H722.183C723.179 460.714 723.987 461.522 723.987 462.518V516.478C723.987 517.313 723.306 517.988 722.476 517.988H469.035C468.199 517.988 467.524 517.307 467.524 516.478V462.518C467.524 461.522 468.332 460.714 469.328 460.714H469.323Z" fill="#5B94A2"/>
<path d="M715.192 460.714V507.057C715.192 508.667 713.886 509.972 712.275 509.972H473.917C471.376 509.972 469.201 511.466 468.166 513.607C469.317 516.184 471.891 517.982 474.896 517.982H716.604C720.677 517.982 723.982 514.68 723.982 510.609V469.498C723.982 464.647 720.046 460.714 715.192 460.714Z" fill="#09809D"/>
<path d="M716.609 519H474.902C470.275 519 466.506 515.239 466.506 510.614V469.504C466.506 464.1 470.906 459.708 476.308 459.708H715.192C720.6 459.708 724.995 464.1 724.995 469.504V510.614C724.995 515.239 721.231 519 716.604 519H716.609ZM476.308 461.727C472.018 461.727 468.526 465.212 468.526 469.498V510.609C468.526 514.116 471.382 516.97 474.896 516.97H716.604C720.113 516.97 722.969 514.116 722.969 510.609V469.498C722.969 465.212 719.482 461.727 715.187 461.727H476.302H476.308Z" fill="#0A5668"/>
<path d="M723.987 472.098H467.518C466.959 472.098 466.506 471.645 466.506 471.086C466.506 470.527 466.959 470.074 467.518 470.074H723.987C724.546 470.074 725 470.527 725 471.086C725 471.645 724.546 472.098 723.987 472.098Z" fill="#0A5668"/>
<path d="M480.11 185.466H90.982C90.3554 185.466 89.8474 185.974 89.8474 186.6V418.332C89.8474 418.958 90.3554 419.466 90.982 419.466H480.11C480.737 419.466 481.245 418.958 481.245 418.332V186.6C481.245 185.974 480.737 185.466 480.11 185.466Z" fill="#09809D"/>
<path d="M475.721 420.478H95.3767C91.768 420.478 88.8345 417.546 88.8345 413.945V190.992C88.8345 187.386 91.768 184.454 95.3767 184.454H475.721C479.324 184.454 482.258 187.386 482.258 190.992V413.945C482.258 417.546 479.324 420.478 475.721 420.478ZM95.3767 186.478C92.886 186.478 90.8603 188.503 90.8603 190.992V413.945C90.8603 416.435 92.886 418.459 95.3767 418.459H475.721C478.212 418.459 480.238 416.435 480.238 413.945V190.992C480.238 188.503 478.212 186.478 475.721 186.478H95.3767Z" fill="#0A5668"/>
<path d="M471.365 185.466H82.2369C81.6103 185.466 81.1023 185.974 81.1023 186.6V418.332C81.1023 418.958 81.6103 419.466 82.2369 419.466H471.365C471.992 419.466 472.5 418.958 472.5 418.332V186.6C472.5 185.974 471.992 185.466 471.365 185.466Z" fill="#5B94A2"/>
<path d="M466.97 420.478H86.6316C83.0229 420.478 80.0894 417.546 80.0894 413.945V190.992C80.0894 187.386 83.0229 184.454 86.6316 184.454H466.976C470.579 184.454 473.513 187.386 473.513 190.992V413.945C473.513 417.546 470.579 420.478 466.976 420.478H466.97ZM86.6316 186.478C84.1409 186.478 82.1152 188.503 82.1152 190.992V413.945C82.1152 416.435 84.1409 418.459 86.6316 418.459H466.976C469.467 418.459 471.492 416.435 471.492 413.945V190.992C471.492 188.503 469.467 186.478 466.976 186.478H86.6316Z" fill="#0A5668"/>
<path d="M461.441 408.414V196.513L92.1555 196.513V408.414H461.441Z" fill="#DFE9FA"/>
<path d="M461.447 409.432H92.1554C91.5964 409.432 91.1425 408.978 91.1425 408.419V196.518C91.1425 195.959 91.5964 195.506 92.1554 195.506H461.447C462.006 195.506 462.46 195.959 462.46 196.518V408.419C462.46 408.978 462.006 409.432 461.447 409.432ZM93.1683 407.407H460.434V197.525H93.1683V407.407Z" fill="#0A5668"/>
<path d="M342.071 419.466H239.3V501.957H342.071V419.466Z" fill="#5B94A2"/>
<path d="M341.888 419.466H239.3V428.648H341.888V419.466Z" fill="#09809D"/>
<path d="M342.065 502.975H239.294C238.735 502.975 238.281 502.522 238.281 501.963V419.471C238.281 418.913 238.735 418.459 239.294 418.459H342.065C342.624 418.459 343.078 418.913 343.078 419.471V501.963C343.078 502.522 342.624 502.975 342.065 502.975ZM240.312 500.951H341.058V420.478H240.312V500.951Z" fill="#0A5668"/>
<path d="M349.72 419.466H342.065V501.957H349.72V419.466Z" fill="#09809D"/>
<path d="M349.72 502.975H342.065C341.506 502.975 341.052 502.522 341.052 501.963V419.471C341.052 418.913 341.506 418.459 342.065 418.459H349.72C350.279 418.459 350.733 418.913 350.733 419.471V501.963C350.733 502.522 350.279 502.975 349.72 502.975ZM343.078 500.951H348.707V420.478H343.078V500.951Z" fill="#0A5668"/>
<path d="M374.621 501.963H422.603C423.073 501.963 423.455 502.345 423.455 502.815V517.141C423.455 517.612 423.073 517.993 422.603 517.993H374.621V501.968V501.963Z" fill="#09809D"/>
<path d="M419.31 519H374.621C374.062 519 373.608 518.546 373.608 517.988V501.963C373.608 501.404 374.062 500.951 374.621 500.951H419.31C422.155 500.951 424.468 503.263 424.468 506.106V513.845C424.468 516.688 422.155 519 419.31 519ZM375.629 516.975H419.304C421.031 516.975 422.437 515.57 422.437 513.845V506.106C422.437 504.38 421.031 502.975 419.304 502.975H375.629V516.975Z" fill="#0A5668"/>
<path d="M396.755 501.963H160.123C159.653 501.963 159.271 502.344 159.271 502.815V517.136C159.271 517.606 159.653 517.988 160.123 517.988H396.755C397.226 517.988 397.608 517.606 397.608 517.136V502.815C397.608 502.344 397.226 501.963 396.755 501.963Z" fill="#5B94A2"/>
<path d="M393.462 519H163.417C160.572 519 158.258 516.688 158.258 513.845V506.106C158.258 503.263 160.572 500.951 163.417 500.951H393.462C396.307 500.951 398.621 503.263 398.621 506.106V513.845C398.621 516.688 396.307 519 393.462 519ZM163.417 502.975C161.69 502.975 160.284 504.38 160.284 506.106V513.845C160.284 515.57 161.69 516.975 163.417 516.975H393.462C395.189 516.975 396.595 515.57 396.595 513.845V506.106C396.595 504.38 395.189 502.975 393.462 502.975H163.417Z" fill="#0A5668"/>
<path d="M447.626 348.596H230.881V394.607H447.626V348.596Z" fill="#D4E3FC"/>
<path d="M447.626 395.62H230.881C230.322 395.62 229.868 395.166 229.868 394.607V348.596C229.868 348.037 230.322 347.584 230.881 347.584H447.626C448.185 347.584 448.639 348.037 448.639 348.596V394.607C448.639 395.166 448.185 395.62 447.626 395.62ZM231.894 393.595H446.613V349.608H231.894V393.595Z" fill="#0A5668"/>
<path d="M268.513 356.882H239.172V386.205H268.513V356.882Z" fill="#5B94A2"/>
<path d="M268.513 387.223H239.172C238.613 387.223 238.159 386.769 238.159 386.21V356.888C238.159 356.329 238.613 355.876 239.172 355.876H268.513C269.072 355.876 269.525 356.329 269.525 356.888V386.21C269.525 386.769 269.072 387.223 268.513 387.223ZM240.185 385.198H267.505V357.895H240.185V385.198Z" fill="#0A5668"/>
<path d="M239.172 377.106C239.172 377.106 244.314 369.605 251.471 371.546C258.627 373.488 254.67 376.309 268.513 376.309V386.21H239.172V377.111V377.106Z" fill="#09809D"/>
<path d="M268.513 387.223H239.172C238.613 387.223 238.159 386.769 238.159 386.21V377.106C238.159 376.901 238.22 376.702 238.337 376.536C238.563 376.204 243.977 368.471 251.736 370.567C254.509 371.32 255.749 372.216 256.84 373.007C258.539 374.235 260.011 375.297 268.513 375.297C269.072 375.297 269.525 375.75 269.525 376.309V386.21C269.525 386.769 269.072 387.223 268.513 387.223ZM240.185 385.198H267.505V377.316C259.231 377.227 257.57 376.027 255.661 374.65C254.659 373.93 253.624 373.178 251.211 372.525C245.526 370.977 241.115 376.237 240.185 377.443V385.204V385.198Z" fill="#0A5668"/>
<path d="M254.725 364.311C254.725 362.298 253.092 360.671 251.083 360.671C249.074 360.671 247.441 362.303 247.441 364.311C247.441 366.319 249.074 367.951 251.083 367.951C253.092 367.951 254.725 366.319 254.725 364.311Z" fill="#D4E3FC"/>
<path d="M251.078 368.963C248.51 368.963 246.423 366.872 246.423 364.311C246.423 361.75 248.51 359.659 251.078 359.659C253.646 359.659 255.733 361.75 255.733 364.311C255.733 366.872 253.646 368.963 251.078 368.963ZM251.078 361.678C249.628 361.678 248.449 362.856 248.449 364.311C248.449 365.766 249.628 366.944 251.078 366.944C252.528 366.944 253.712 365.766 253.712 364.311C253.712 362.856 252.533 361.678 251.078 361.678Z" fill="#0A5668"/>
<path d="M217.066 210.325H105.976V394.607H217.066V210.325Z" fill="#D4E3FC"/>
<path d="M217.066 395.62H105.976C105.417 395.62 104.963 395.166 104.963 394.607V210.325C104.963 209.766 105.417 209.313 105.976 209.313H217.066C217.625 209.313 218.079 209.766 218.079 210.325V394.607C218.079 395.166 217.625 395.62 217.066 395.62ZM106.989 393.595H216.053V211.332H106.989V393.595Z" fill="#0A5668"/>
<path d="M208.775 386.327V218.611H114.267L114.267 386.327H208.775Z" fill="#D4E3FC"/>
<path d="M208.775 387.339H114.267C113.708 387.339 113.254 386.885 113.254 386.327V218.611C113.254 218.052 113.708 217.599 114.267 217.599H208.775C209.334 217.599 209.788 218.052 209.788 218.611V386.327C209.788 386.885 209.334 387.339 208.775 387.339ZM115.275 385.314H207.762V219.623H115.275V385.314Z" fill="#0A5668"/>
<path d="M196.958 227.478H125.016V243.094H196.958V227.478Z" fill="#5B94A2"/>
<path d="M196.963 244.106H125.016C124.457 244.106 124.003 243.652 124.003 243.093V227.478C124.003 226.919 124.457 226.466 125.016 226.466H196.963C197.523 226.466 197.976 226.919 197.976 227.478V243.093C197.976 243.652 197.523 244.106 196.963 244.106ZM126.029 242.081H195.951V228.485H126.029V242.081Z" fill="#0A5668"/>
<path d="M200.666 256.397H123.433V268.373H200.666V256.397Z" fill="#5B94A2"/>
<path d="M200.666 269.385H123.433C122.874 269.385 122.42 268.931 122.42 268.373V256.397C122.42 255.838 122.874 255.385 123.433 255.385H200.666C201.225 255.385 201.679 255.838 201.679 256.397V268.373C201.679 268.931 201.225 269.385 200.666 269.385ZM124.446 267.36H199.659V257.409H124.446V267.36Z" fill="#0A5668"/>
<path d="M200.666 276.697H123.433V288.673H200.666V276.697Z" fill="#5B94A2"/>
<path d="M200.666 289.685H123.433C122.874 289.685 122.42 289.232 122.42 288.673V276.697C122.42 276.139 122.874 275.685 123.433 275.685H200.666C201.225 275.685 201.679 276.139 201.679 276.697V288.673C201.679 289.232 201.225 289.685 200.666 289.685ZM124.446 287.661H199.659V277.71H124.446V287.661Z" fill="#0A5668"/>
<path d="M178.543 327.731H145.561C142.251 327.731 139.573 325.048 139.573 321.746C139.573 318.438 142.257 315.761 145.561 315.761H178.543C181.853 315.761 184.532 318.444 184.532 321.746C184.532 325.054 181.848 327.731 178.543 327.731Z" fill="#09809D"/>
<path d="M178.538 328.743H145.556C141.692 328.743 138.554 325.602 138.554 321.746C138.554 317.891 141.698 314.749 145.556 314.749H178.538C182.401 314.749 185.54 317.891 185.54 321.746C185.54 325.602 182.396 328.743 178.538 328.743ZM145.556 316.768C142.81 316.768 140.58 318.997 140.58 321.741C140.58 324.484 142.816 326.713 145.556 326.713H178.538C181.283 326.713 183.514 324.484 183.514 321.741C183.514 318.997 181.278 316.768 178.538 316.768H145.556Z" fill="#0A5668"/>
<path d="M184.527 296.218H140.093V298.951H184.527V296.218Z" fill="#5B94A2"/>
<path d="M184.532 299.963H140.093C139.534 299.963 139.08 299.509 139.08 298.951V296.218C139.08 295.659 139.534 295.206 140.093 295.206H184.532C185.091 295.206 185.545 295.659 185.545 296.218V298.951C185.545 299.509 185.091 299.963 184.532 299.963ZM141.106 297.944H183.519V297.23H141.106V297.944Z" fill="#0A5668"/>
<path d="M201.198 346.809H123.433V350.388H201.198V346.809Z" fill="#5B94A2"/>
<path d="M201.192 351.401H123.427C122.868 351.401 122.414 350.947 122.414 350.388V346.804C122.414 346.245 122.868 345.792 123.427 345.792H201.192C201.751 345.792 202.205 346.245 202.205 346.804V350.388C202.205 350.947 201.751 351.401 201.192 351.401ZM124.446 349.376H200.185V347.816H124.446V349.376Z" fill="#0A5668"/>
<path d="M201.198 353.774H123.433V357.352H201.198V353.774Z" fill="#5B94A2"/>
<path d="M201.192 358.365H123.427C122.868 358.365 122.414 357.911 122.414 357.352V353.774C122.414 353.215 122.868 352.761 123.427 352.761H201.192C201.751 352.761 202.205 353.215 202.205 353.774V357.352C202.205 357.911 201.751 358.365 201.192 358.365ZM124.446 356.34H200.185V354.786H124.446V356.34Z" fill="#0A5668"/>
<path d="M157.223 360.738H123.433V364.317H157.223V360.738Z" fill="#5B94A2"/>
<path d="M157.223 365.334H123.433C122.874 365.334 122.42 364.881 122.42 364.322V360.738C122.42 360.179 122.874 359.726 123.433 359.726H157.223C157.782 359.726 158.236 360.179 158.236 360.738V364.322C158.236 364.881 157.782 365.334 157.223 365.334ZM124.446 363.31H156.216V361.75H124.446V363.31Z" fill="#0A5668"/>
<path d="M201.192 371.602H181.411V375.181H201.192V371.602Z" fill="#5B94A2"/>
<path d="M201.192 376.198H181.411C180.852 376.198 180.398 375.745 180.398 375.186V371.602C180.398 371.043 180.852 370.589 181.411 370.589H201.192C201.751 370.589 202.205 371.043 202.205 371.602V375.186C202.205 375.745 201.751 376.198 201.192 376.198ZM182.423 374.174H200.185V372.614H182.423V374.174Z" fill="#0A5668"/>
<path d="M185.052 405.084H44.0187V469.183H185.052V405.084Z" fill="#D4E3FC"/>
<path d="M185.058 470.195H44.0243C43.4652 470.195 43.0114 469.742 43.0114 469.183V405.084C43.0114 404.525 43.4652 404.072 44.0243 404.072H185.058C185.617 404.072 186.071 404.525 186.071 405.084V469.183C186.071 469.742 185.617 470.195 185.058 470.195ZM45.0316 468.171H184.04V406.096H45.0316V468.171Z" fill="#0A5668"/>
<path d="M44.0187 405.084V469.183H44.4338L67.7799 405.084H44.0187Z" fill="#5B94A2"/>
<path d="M44.4394 470.195H44.0243C43.4652 470.195 43.0114 469.742 43.0114 469.183V405.084C43.0114 404.525 43.4652 404.072 44.0243 404.072H67.7854C68.1175 404.072 68.4219 404.232 68.6156 404.503C68.8038 404.774 68.8481 405.117 68.7374 405.427L45.3914 469.526C45.2475 469.924 44.8656 470.19 44.4394 470.19V470.195ZM45.0316 406.091V464.586L66.3353 406.091H45.0316Z" fill="#0A5668"/>
<path d="M59.8152 469.183H83.5764L106.922 405.084H83.1613L59.8152 469.183Z" fill="#5B94A2"/>
<path d="M83.5764 470.195H59.8152C59.4831 470.195 59.1787 470.035 58.985 469.764C58.7968 469.493 58.7525 469.15 58.8632 468.84L82.2093 404.741C82.3532 404.343 82.7351 404.077 83.1612 404.077H106.922C107.254 404.077 107.559 404.238 107.753 404.509C107.941 404.78 107.985 405.123 107.874 405.432L84.5284 469.532C84.3845 469.93 84.0025 470.195 83.5764 470.195ZM61.2654 468.171H82.8679L105.478 406.096H83.8752L61.2654 468.171Z" fill="#0A5668"/>
<path d="M98.9577 469.183H122.719L146.065 405.084H122.304L98.9577 469.183Z" fill="#5B94A2"/>
<path d="M122.719 470.195H98.9577C98.6256 470.195 98.3212 470.035 98.1275 469.764C97.9393 469.493 97.895 469.15 98.0057 468.84L121.352 404.741C121.496 404.343 121.878 404.077 122.304 404.077H146.065C146.397 404.077 146.701 404.238 146.895 404.509C147.083 404.78 147.128 405.123 147.017 405.432L123.671 469.532C123.527 469.93 123.145 470.195 122.719 470.195ZM100.402 468.171H122.01L144.62 406.096H123.018L100.408 468.171H100.402Z" fill="#0A5668"/>
<path d="M138.1 469.183H161.861L185.058 405.493V405.084H161.446L138.1 469.183Z" fill="#5B94A2"/>
<path d="M161.861 470.195H138.1C137.768 470.195 137.464 470.035 137.27 469.764C137.082 469.493 137.038 469.15 137.148 468.84L160.494 404.741C160.638 404.343 161.02 404.077 161.446 404.077H185.058C185.617 404.077 186.071 404.531 186.071 405.089V405.504C186.071 405.621 186.049 405.737 186.01 405.847L162.813 469.532C162.669 469.93 162.288 470.195 161.861 470.195ZM139.545 468.171H161.147L183.757 406.096H162.149L139.539 468.171H139.545Z" fill="#0A5668"/>
<path d="M185.058 447.726L177.243 469.183H185.058V447.726Z" fill="#5B94A2"/>
<path d="M185.058 470.195H177.243C176.911 470.195 176.606 470.035 176.413 469.764C176.224 469.493 176.18 469.15 176.291 468.84L184.106 447.389C184.272 446.93 184.754 446.648 185.235 446.736C185.717 446.819 186.071 447.24 186.071 447.732V469.183C186.071 469.742 185.617 470.195 185.058 470.195ZM178.687 468.171H184.045V453.468L178.687 468.171Z" fill="#0A5668"/>
<path d="M72.811 513.9C72.252 513.9 71.7982 513.446 71.7982 512.888V469.183C71.7982 468.624 72.252 468.171 72.811 468.171C73.3701 468.171 73.8239 468.624 73.8239 469.183V512.888C73.8239 513.446 73.3701 513.9 72.811 513.9Z" fill="#0A5668"/>
<path d="M65.2504 512.888H80.3717C81.783 512.888 82.9232 514.027 82.9232 515.438C82.9232 516.848 81.783 517.988 80.3717 517.988H65.2504C63.839 517.988 62.6989 516.848 62.6989 515.438C62.6989 514.027 63.839 512.888 65.2504 512.888Z" fill="#5B94A2"/>
<path d="M80.3717 519H65.2504C63.2855 519 61.686 517.401 61.686 515.438C61.686 513.474 63.2855 511.875 65.2504 511.875H80.3717C82.3365 511.875 83.9361 513.474 83.9361 515.438C83.9361 517.401 82.3365 519 80.3717 519ZM65.2504 513.9C64.4036 513.9 63.7117 514.591 63.7117 515.438C63.7117 516.284 64.4036 516.975 65.2504 516.975H80.3717C81.2185 516.975 81.9104 516.284 81.9104 515.438C81.9104 514.591 81.2185 513.9 80.3717 513.9H65.2504Z" fill="#0A5668"/>
<path d="M156.266 513.9C155.707 513.9 155.253 513.446 155.253 512.888V469.183C155.253 468.624 155.707 468.171 156.266 468.171C156.825 468.171 157.279 468.624 157.279 469.183V512.888C157.279 513.446 156.825 513.9 156.266 513.9Z" fill="#0A5668"/>
<path d="M163.826 512.888H148.705C147.294 512.888 146.153 514.027 146.153 515.438C146.153 516.848 147.294 517.988 148.705 517.988H163.826C165.238 517.988 166.378 516.848 166.378 515.438C166.378 514.027 165.238 512.888 163.826 512.888Z" fill="#5B94A2"/>
<path d="M163.826 519H148.699C146.735 519 145.135 517.401 145.135 515.438C145.135 513.474 146.735 511.875 148.699 511.875H163.826C165.791 511.875 167.391 513.474 167.391 515.438C167.391 517.401 165.791 519 163.826 519ZM148.705 513.9C147.858 513.9 147.166 514.591 147.166 515.438C147.166 516.284 147.858 516.975 148.705 516.975H163.832C164.679 516.975 165.37 516.284 165.37 515.438C165.37 514.591 164.679 513.9 163.832 513.9H148.705Z" fill="#0A5668"/>
<path d="M472.638 512.982H430.402C429.018 512.982 427.894 514.105 427.894 515.488C427.894 516.87 429.018 517.993 430.402 517.993H472.638C474.022 517.993 475.145 516.87 475.145 515.488C475.145 514.105 474.022 512.982 472.638 512.982Z" fill="#5B94A2"/>
<path d="M472.638 519H430.402C428.464 519 426.881 517.424 426.881 515.488C426.881 513.551 428.459 511.969 430.402 511.969H472.638C474.575 511.969 476.158 513.546 476.158 515.488C476.158 517.429 474.581 519 472.638 519ZM430.402 513.988C429.577 513.988 428.907 514.658 428.907 515.482C428.907 516.306 429.577 516.975 430.402 516.975H472.638C473.463 516.975 474.133 516.306 474.133 515.482C474.133 514.658 473.463 513.988 472.638 513.988H430.402Z" fill="#0A5668"/>
<path d="M450.034 463.48L432.975 512.976H470.064L453.006 463.48C452.519 462.07 450.521 462.07 450.034 463.48Z" fill="#D4E3FC"/>
<path d="M470.064 513.988H432.975C432.649 513.988 432.339 513.828 432.151 513.563C431.962 513.297 431.913 512.954 432.018 512.644L449.076 463.148C449.442 462.092 450.405 461.406 451.517 461.406C452.63 461.406 453.598 462.092 453.964 463.148L471.022 512.644C471.127 512.954 471.077 513.297 470.889 513.563C470.701 513.828 470.391 513.988 470.064 513.988ZM434.392 511.969H468.647L452.054 463.812C451.938 463.469 451.644 463.43 451.523 463.43C451.401 463.43 451.113 463.469 450.991 463.812L434.398 511.969H434.392Z" fill="#0A5668"/>
<path d="M432.975 512.982H451.517H470.064L466.267 501.963H436.772L432.975 512.982Z" fill="#5B94A2"/>
<path d="M470.064 513.988H432.975C432.649 513.988 432.339 513.828 432.151 513.563C431.962 513.297 431.913 512.954 432.018 512.644L435.815 501.625C435.953 501.216 436.341 500.945 436.772 500.945H466.268C466.699 500.945 467.087 501.222 467.225 501.625L471.022 512.644C471.127 512.954 471.077 513.297 470.889 513.563C470.701 513.828 470.391 513.988 470.064 513.988ZM434.392 511.969H468.647L465.548 502.975H437.497L434.398 511.969H434.392Z" fill="#0A5668"/>
<path d="M440.066 492.393H462.969L458.923 480.656H444.112L440.066 492.393Z" fill="#5B94A2"/>
<path d="M462.969 493.406H440.071C439.745 493.406 439.435 493.245 439.246 492.98C439.058 492.714 439.008 492.371 439.114 492.062L443.159 480.324C443.298 479.914 443.685 479.643 444.117 479.643H458.928C459.36 479.643 459.747 479.92 459.886 480.324L463.926 492.062C464.031 492.371 463.982 492.714 463.793 492.98C463.605 493.245 463.295 493.406 462.969 493.406ZM441.488 491.381H461.552L458.203 481.668H444.837L441.488 491.381Z" fill="#0A5668"/>
<path d="M450.034 463.48L447.41 471.086H455.624L453.001 463.48C452.513 462.07 450.515 462.07 450.028 463.48H450.034Z" fill="#5B94A2"/>
<path d="M455.624 472.098H447.41C447.084 472.098 446.774 471.938 446.586 471.672C446.397 471.407 446.348 471.064 446.453 470.754L449.071 463.148C449.436 462.092 450.399 461.406 451.512 461.406C452.624 461.406 453.593 462.092 453.958 463.148L456.576 470.754C456.681 471.064 456.631 471.407 456.443 471.672C456.255 471.938 455.945 472.098 455.618 472.098H455.624ZM448.827 470.074H454.207L452.048 463.812C451.932 463.469 451.639 463.43 451.517 463.43C451.395 463.43 451.108 463.469 450.986 463.812L448.827 470.074Z" fill="#0A5668"/>
<path d="M45.7511 512.982H3.51463C2.13092 512.982 1.00734 514.105 1.00734 515.488C1.00734 516.87 2.13092 517.993 3.51463 517.993H45.7511C47.1348 517.993 48.2584 516.87 48.2584 515.488C48.2584 514.105 47.1348 512.982 45.7511 512.982Z" fill="#5B94A2"/>
<path d="M45.7511 519H3.51464C1.57743 519 0 517.424 0 515.488C0 513.551 1.57743 511.969 3.51464 511.969H45.7511C47.6883 511.969 49.2658 513.546 49.2658 515.488C49.2658 517.429 47.6883 519 45.7511 519ZM3.51464 513.988C2.68994 513.988 2.02022 514.658 2.02022 515.482C2.02022 516.306 2.68994 516.975 3.51464 516.975H45.7511C46.5758 516.975 47.2456 516.306 47.2456 515.482C47.2456 514.658 46.5758 513.988 45.7511 513.988H3.51464Z" fill="#0A5668"/>
<path d="M23.1468 463.48L6.08835 512.976H43.1774L26.119 463.48C25.6319 462.07 23.6338 462.07 23.1468 463.48Z" fill="#D4E3FC"/>
<path d="M43.183 513.988H6.08835C5.76179 513.988 5.45184 513.828 5.26365 513.563C5.07547 513.297 5.02565 512.954 5.13082 512.644L22.1892 463.148C22.5545 462.092 23.5121 461.406 24.6357 461.406C25.7592 461.406 26.7112 462.092 27.0765 463.148L44.135 512.644C44.2401 512.954 44.1903 513.297 44.0021 513.563C43.8139 513.828 43.504 513.988 43.1774 513.988H43.183ZM7.5108 511.969H41.766L25.1725 463.812C25.0563 463.469 24.763 463.43 24.6412 463.43C24.5194 463.43 24.2261 463.469 24.1098 463.812L7.51634 511.969H7.5108Z" fill="#0A5668"/>
<path d="M6.08835 512.982H24.6357H43.183L39.3861 501.963H9.88526L6.08835 512.982Z" fill="#5B94A2"/>
<path d="M43.183 513.988H6.08835C5.76179 513.988 5.45184 513.828 5.26365 513.563C5.07547 513.297 5.02565 512.954 5.13082 512.644L8.92773 501.625C9.0661 501.216 9.45354 500.945 9.88526 500.945H39.3861C39.8178 500.945 40.1997 501.222 40.3436 501.625L44.1405 512.644C44.2457 512.954 44.1959 513.297 44.0077 513.563C43.8195 513.828 43.5095 513.988 43.183 513.988ZM7.51081 511.969H41.766L38.6665 502.975H10.6103L7.51081 511.969Z" fill="#0A5668"/>
<path d="M13.184 492.393H36.0873L32.0413 480.656H17.23L13.184 492.393Z" fill="#5B94A2"/>
<path d="M36.0873 493.406H13.184C12.8575 493.406 12.5475 493.245 12.3593 492.98C12.1712 492.714 12.1213 492.371 12.2265 492.062L16.2725 480.324C16.4109 479.914 16.7983 479.643 17.23 479.643H32.0413C32.473 479.643 32.8549 479.92 32.9988 480.324L37.0448 492.062C37.15 492.371 37.1002 492.714 36.912 492.98C36.7238 493.245 36.4138 493.406 36.0873 493.406ZM14.601 491.381H34.6648L31.3162 481.668H17.9495L14.601 491.381Z" fill="#0A5668"/>
<path d="M23.1468 463.48L20.5288 471.086H28.7425L26.119 463.48C25.6319 462.07 23.6338 462.07 23.1468 463.48Z" fill="#5B94A2"/>
<path d="M28.7425 472.098H20.5288C20.2022 472.098 19.8923 471.938 19.7041 471.672C19.5159 471.407 19.4661 471.064 19.5713 470.754L22.1892 463.148C22.5546 462.092 23.5121 461.406 24.6357 461.406C25.7592 461.406 26.7112 462.092 27.0765 463.148L29.7001 470.754C29.8052 471.064 29.7554 471.407 29.5672 471.672C29.379 471.938 29.0691 472.098 28.7425 472.098ZM21.9457 470.074H27.3201L25.1615 463.812C25.0452 463.469 24.7519 463.43 24.6301 463.43C24.5084 463.43 24.215 463.469 24.0988 463.812L21.9402 470.074H21.9457Z" fill="#0A5668"/>
<path d="M694.193 512.982H651.957C650.573 512.982 649.449 514.105 649.449 515.488C649.449 516.87 650.573 517.993 651.957 517.993H694.193C695.577 517.993 696.7 516.87 696.7 515.488C696.7 514.105 695.577 512.982 694.193 512.982Z" fill="#5B94A2"/>
<path d="M694.193 519H651.957C650.019 519 648.436 517.424 648.436 515.488C648.436 513.551 650.014 511.969 651.957 511.969H694.193C696.13 511.969 697.713 513.546 697.713 515.488C697.713 517.429 696.136 519 694.193 519ZM651.957 513.988C651.132 513.988 650.462 514.658 650.462 515.482C650.462 516.306 651.132 516.975 651.957 516.975H694.193C695.018 516.975 695.687 516.306 695.687 515.482C695.687 514.658 695.018 513.988 694.193 513.988H651.957Z" fill="#0A5668"/>
<path d="M671.589 463.48L654.53 512.976H691.619L674.561 463.48C674.074 462.07 672.076 462.07 671.589 463.48Z" fill="#D4E3FC"/>
<path d="M691.619 513.988H654.53C654.204 513.988 653.894 513.828 653.705 513.563C653.517 513.297 653.467 512.954 653.573 512.644L670.631 463.148C670.996 462.092 671.959 461.406 673.072 461.406C674.184 461.406 675.153 462.092 675.518 463.148L692.577 512.644C692.682 512.954 692.632 513.297 692.444 513.563C692.256 513.828 691.946 513.988 691.619 513.988ZM655.947 511.969H690.202L673.609 463.812C673.493 463.469 673.199 463.43 673.077 463.43C672.956 463.43 672.668 463.469 672.546 463.812L655.953 511.969H655.947Z" fill="#0A5668"/>
<path d="M654.53 512.982H673.072H691.619L687.822 501.963H658.327L654.53 512.982Z" fill="#5B94A2"/>
<path d="M691.619 513.988H654.53C654.204 513.988 653.894 513.828 653.705 513.563C653.517 513.297 653.467 512.954 653.573 512.644L657.37 501.625C657.508 501.216 657.895 500.945 658.327 500.945H687.822C688.254 500.945 688.641 501.222 688.78 501.625L692.577 512.644C692.682 512.954 692.632 513.297 692.444 513.563C692.256 513.828 691.946 513.988 691.619 513.988ZM655.947 511.969H690.202L687.103 502.975H659.052L655.953 511.969H655.947Z" fill="#0A5668"/>
<path d="M661.626 492.393H684.524L680.478 480.656H665.666L661.626 492.393Z" fill="#5B94A2"/>
<path d="M684.524 493.406H661.626C661.299 493.406 660.989 493.245 660.801 492.98C660.613 492.714 660.563 492.371 660.668 492.062L664.714 480.324C664.853 479.914 665.24 479.643 665.672 479.643H680.483C680.915 479.643 681.302 479.92 681.441 480.324L685.481 492.062C685.586 492.371 685.536 492.714 685.348 492.98C685.16 493.245 684.85 493.406 684.524 493.406ZM663.043 491.381H683.107L679.758 481.668H666.391L663.043 491.381Z" fill="#0A5668"/>
<path d="M671.589 463.48L668.971 471.086H677.184L674.561 463.48C674.074 462.07 672.076 462.07 671.589 463.48Z" fill="#5B94A2"/>
<path d="M677.179 472.098H668.965C668.639 472.098 668.329 471.938 668.14 471.672C667.952 471.407 667.902 471.064 668.008 470.754L670.626 463.148C670.991 462.092 671.954 461.406 673.066 461.406C674.179 461.406 675.147 462.092 675.513 463.148L678.131 470.754C678.236 471.064 678.186 471.407 677.998 471.672C677.81 471.938 677.5 472.098 677.173 472.098H677.179ZM670.382 470.074H675.762L673.603 463.812C673.487 463.469 673.194 463.43 673.072 463.43C672.95 463.43 672.662 463.469 672.541 463.812L670.382 470.074Z" fill="#0A5668"/>
<path d="M207.712 519C207.153 519 206.699 518.546 206.699 517.988V432.033C206.699 431.475 207.153 431.021 207.712 431.021C208.271 431.021 208.725 431.475 208.725 432.033V517.988C208.725 518.546 208.271 519 207.712 519Z" fill="#0A5668"/>
<path d="M211.066 432.033C211.066 430.164 209.55 428.648 207.679 428.648C205.808 428.648 204.292 430.164 204.292 432.033C204.292 433.903 205.808 435.419 207.679 435.419C209.55 435.419 211.066 433.903 211.066 432.033Z" fill="#5B94A2"/>
<path d="M207.679 436.431C205.255 436.431 203.279 434.456 203.279 432.033C203.279 429.611 205.255 427.636 207.679 427.636C210.103 427.636 212.079 429.611 212.079 432.033C212.079 434.456 210.109 436.431 207.679 436.431ZM207.679 429.66C206.367 429.66 205.304 430.722 205.304 432.033C205.304 433.344 206.373 434.412 207.679 434.412C208.985 434.412 210.053 433.344 210.053 432.033C210.053 430.722 208.991 429.66 207.679 429.66Z" fill="#0A5668"/>
<path d="M623.103 519C622.544 519 622.09 518.546 622.09 517.988V432.034C622.09 431.475 622.544 431.021 623.103 431.021C623.662 431.021 624.116 431.475 624.116 432.034V517.988C624.116 518.546 623.662 519 623.103 519Z" fill="#0A5668"/>
<path d="M626.457 432.034C626.457 430.164 624.941 428.648 623.07 428.648C621.199 428.648 619.683 430.164 619.683 432.034C619.683 433.903 621.199 435.419 623.07 435.419C624.941 435.419 626.457 433.903 626.457 432.034Z" fill="#5B94A2"/>
<path d="M623.07 436.431C620.64 436.431 618.67 434.456 618.67 432.034C618.67 429.611 620.646 427.636 623.07 427.636C625.494 427.636 627.47 429.611 627.47 432.034C627.47 434.456 625.494 436.431 623.07 436.431ZM623.07 429.661C621.758 429.661 620.69 430.723 620.69 432.034C620.69 433.344 621.758 434.412 623.07 434.412C624.382 434.412 625.444 433.344 625.444 432.034C625.444 430.723 624.382 429.661 623.07 429.661Z" fill="#0A5668"/>
<path d="M623.07 441.503H207.712V450.973H623.07V441.503Z" fill="#D4E3FC"/>
<path d="M623.07 451.986H207.712C207.153 451.986 206.699 451.532 206.699 450.973V441.503C206.699 440.945 207.153 440.491 207.712 440.491H623.07C623.629 440.491 624.083 440.945 624.083 441.503V450.973C624.083 451.532 623.629 451.986 623.07 451.986ZM208.725 449.961H622.063V442.516H208.725V449.961Z" fill="#0A5668"/>
<path d="M212.494 450.973H216.568L220.016 441.503H215.942L212.494 450.973Z" fill="#5B94A2"/>
<path d="M216.568 451.986H212.494C212.162 451.986 211.858 451.825 211.664 451.554C211.476 451.283 211.432 450.94 211.542 450.63L214.991 441.161C215.134 440.762 215.516 440.497 215.943 440.497H220.016C220.348 440.497 220.653 440.657 220.846 440.928C221.035 441.199 221.079 441.542 220.968 441.852L217.52 451.322C217.376 451.72 216.994 451.986 216.568 451.986ZM213.939 449.961H215.854L218.566 442.516H216.651L213.939 449.961Z" fill="#0A5668"/>
<path d="M223.426 450.973H227.494L230.942 441.503H226.874L223.426 450.973Z" fill="#5B94A2"/>
<path d="M227.494 451.986H223.42C223.088 451.986 222.784 451.825 222.59 451.554C222.402 451.283 222.357 450.94 222.468 450.63L225.916 441.161C226.06 440.762 226.442 440.497 226.868 440.497H230.942C231.274 440.497 231.578 440.657 231.772 440.928C231.96 441.199 232.005 441.542 231.894 441.852L228.446 451.322C228.302 451.72 227.92 451.986 227.494 451.986ZM224.87 449.961H226.785L229.497 442.516H227.582L224.87 449.961Z" fill="#0A5668"/>
<path d="M234.351 450.973H238.425L241.873 441.503H237.805L234.351 450.973Z" fill="#5B94A2"/>
<path d="M238.425 451.986H234.351C234.019 451.986 233.715 451.825 233.521 451.554C233.333 451.283 233.289 450.94 233.399 450.63L236.848 441.161C236.992 440.762 237.373 440.497 237.8 440.497H241.873C242.205 440.497 242.51 440.657 242.704 440.928C242.892 441.199 242.936 441.542 242.825 441.852L239.377 451.322C239.233 451.72 238.851 451.986 238.425 451.986ZM235.802 449.961H237.717L240.429 442.516H238.514L235.802 449.961Z" fill="#0A5668"/>
<path d="M245.283 450.973H249.356L252.805 441.503H248.731L245.283 450.973Z" fill="#5B94A2"/>
<path d="M249.356 451.986H245.283C244.951 451.986 244.646 451.825 244.453 451.554C244.264 451.283 244.22 450.94 244.331 450.63L247.779 441.161C247.923 440.762 248.305 440.497 248.731 440.497H252.805C253.137 440.497 253.441 440.657 253.635 440.928C253.823 441.199 253.867 441.542 253.757 441.852L250.308 451.322C250.165 451.72 249.783 451.986 249.356 451.986ZM246.727 449.961H248.642L251.355 442.516H249.439L246.727 449.961Z" fill="#0A5668"/>
<path d="M256.214 450.973H260.288L263.736 441.503H259.662L256.214 450.973Z" fill="#5B94A2"/>
<path d="M260.288 451.986H256.214C255.882 451.986 255.578 451.825 255.384 451.554C255.196 451.283 255.151 450.94 255.262 450.63L258.71 441.161C258.854 440.762 259.236 440.497 259.662 440.497H263.736C264.068 440.497 264.373 440.657 264.566 440.928C264.754 441.199 264.799 441.542 264.688 441.852L261.24 451.322C261.096 451.72 260.714 451.986 260.288 451.986ZM257.659 449.961H259.574L262.286 442.516H260.371L257.659 449.961Z" fill="#0A5668"/>
<path d="M267.145 450.973H271.214L274.662 441.503H270.594L267.145 450.973Z" fill="#5B94A2"/>
<path d="M271.214 451.986H267.14C266.808 451.986 266.503 451.825 266.31 451.554C266.122 451.283 266.077 450.94 266.188 450.63L269.636 441.161C269.78 440.762 270.162 440.497 270.588 440.497H274.662C274.994 440.497 275.298 440.657 275.492 440.928C275.68 441.199 275.725 441.542 275.614 441.852L272.166 451.322C272.022 451.72 271.64 451.986 271.214 451.986ZM268.59 449.961H270.505L273.217 442.516H271.302L268.59 449.961Z" fill="#0A5668"/>
<path d="M278.071 450.973H282.145L285.593 441.503H281.525L278.071 450.973Z" fill="#5B94A2"/>
<path d="M282.145 451.986H278.071C277.739 451.986 277.435 451.825 277.241 451.554C277.053 451.283 277.009 450.94 277.119 450.63L280.568 441.161C280.711 440.762 281.093 440.497 281.52 440.497H285.593C285.925 440.497 286.23 440.657 286.423 440.928C286.612 441.199 286.656 441.542 286.545 441.852L283.097 451.322C282.953 451.72 282.571 451.986 282.145 451.986ZM279.521 449.961H281.436L284.149 442.516H282.234L279.521 449.961Z" fill="#0A5668"/>
<path d="M289.003 450.973H293.076L296.525 441.503H292.451L289.003 450.973Z" fill="#5B94A2"/>
<path d="M293.076 451.986H289.003C288.671 451.986 288.366 451.825 288.172 451.554C287.984 451.283 287.94 450.94 288.051 450.63L291.499 441.161C291.643 440.762 292.025 440.497 292.451 440.497H296.525C296.857 440.497 297.161 440.657 297.355 440.928C297.543 441.199 297.587 441.542 297.477 441.852L294.028 451.322C293.884 451.72 293.503 451.986 293.076 451.986ZM290.447 449.961H292.362L295.074 442.516H293.159L290.447 449.961Z" fill="#0A5668"/>
<path d="M299.934 450.973H304.008L307.456 441.503H303.382L299.934 450.973Z" fill="#5B94A2"/>
<path d="M304.008 451.986H299.934C299.602 451.986 299.297 451.825 299.104 451.554C298.916 451.283 298.871 450.94 298.982 450.63L302.43 441.161C302.574 440.762 302.956 440.497 303.382 440.497H307.456C307.788 440.497 308.092 440.657 308.286 440.928C308.474 441.199 308.519 441.542 308.408 441.852L304.96 451.322C304.816 451.72 304.434 451.986 304.008 451.986ZM301.379 449.961H303.299L306.011 442.516H304.096L301.384 449.961H301.379Z" fill="#0A5668"/>
<path d="M310.865 450.973H314.933L318.382 441.503H314.314L310.865 450.973Z" fill="#5B94A2"/>
<path d="M314.933 451.986H310.86C310.528 451.986 310.223 451.825 310.03 451.554C309.841 451.283 309.797 450.94 309.908 450.63L313.356 441.161C313.5 440.762 313.882 440.497 314.308 440.497H318.382C318.714 440.497 319.018 440.657 319.212 440.928C319.4 441.199 319.444 441.542 319.334 441.852L315.885 451.322C315.742 451.72 315.36 451.986 314.933 451.986ZM312.31 449.961H314.225L316.937 442.516H315.022L312.31 449.961Z" fill="#0A5668"/>
<path d="M321.791 450.973H325.865L329.313 441.503H325.245L321.791 450.973Z" fill="#5B94A2"/>
<path d="M325.865 451.986H321.791C321.459 451.986 321.155 451.825 320.961 451.554C320.773 451.283 320.728 450.94 320.839 450.63L324.287 441.161C324.431 440.762 324.813 440.497 325.239 440.497H329.313C329.645 440.497 329.949 440.657 330.143 440.928C330.331 441.199 330.376 441.542 330.265 441.852L326.817 451.322C326.673 451.72 326.291 451.986 325.865 451.986ZM323.241 449.961H325.156L327.868 442.516H325.953L323.241 449.961Z" fill="#0A5668"/>
<path d="M332.722 450.973H336.796L340.244 441.503H336.171L332.722 450.973Z" fill="#5B94A2"/>
<path d="M336.796 451.986H332.723C332.39 451.986 332.086 451.825 331.892 451.554C331.704 451.283 331.66 450.94 331.771 450.63L335.219 441.161C335.363 440.762 335.745 440.497 336.171 440.497H340.244C340.576 440.497 340.881 440.657 341.075 440.928C341.263 441.199 341.307 441.542 341.196 441.852L337.748 451.322C337.604 451.72 337.222 451.986 336.796 451.986ZM334.167 449.961H336.082L338.794 442.516H336.879L334.167 449.961Z" fill="#0A5668"/>
<path d="M343.654 450.973H347.727L351.176 441.503H347.102L343.654 450.973Z" fill="#5B94A2"/>
<path d="M347.728 451.986H343.654C343.322 451.986 343.017 451.825 342.824 451.554C342.635 451.283 342.591 450.94 342.702 450.63L346.15 441.161C346.294 440.762 346.676 440.497 347.102 440.497H351.176C351.508 440.497 351.812 440.657 352.006 440.928C352.194 441.199 352.238 441.542 352.128 441.852L348.679 451.322C348.536 451.72 348.154 451.986 347.728 451.986ZM345.098 449.961H347.014L349.726 442.516H347.811L345.098 449.961Z" fill="#0A5668"/>
<path d="M354.585 450.973H358.653L362.101 441.503H358.033L354.585 450.973Z" fill="#5B94A2"/>
<path d="M358.653 451.986H354.58C354.248 451.986 353.943 451.825 353.749 451.554C353.561 451.283 353.517 450.94 353.628 450.63L357.076 441.161C357.22 440.762 357.602 440.497 358.028 440.497H362.101C362.434 440.497 362.738 440.657 362.932 440.928C363.12 441.199 363.164 441.542 363.054 441.852L359.605 451.322C359.461 451.72 359.079 451.986 358.653 451.986ZM356.03 449.961H357.95L360.662 442.516H358.747L356.035 449.961H356.03Z" fill="#0A5668"/>
<path d="M365.511 450.973H369.585L373.033 441.503H368.959L365.511 450.973Z" fill="#5B94A2"/>
<path d="M369.585 451.986H365.511C365.179 451.986 364.869 451.825 364.681 451.554C364.493 451.283 364.448 450.94 364.559 450.63L368.007 441.161C368.151 440.762 368.533 440.497 368.959 440.497H373.033C373.365 440.497 373.675 440.657 373.863 440.928C374.051 441.199 374.096 441.542 373.985 441.852L370.537 451.322C370.393 451.72 370.011 451.986 369.585 451.986ZM366.956 449.961H368.876L371.588 442.516H369.668L366.956 449.961Z" fill="#0A5668"/>
<path d="M376.442 450.973H380.516L383.964 441.503H379.891L376.442 450.973Z" fill="#5B94A2"/>
<path d="M380.516 451.986H376.442C376.11 451.986 375.8 451.825 375.612 451.554C375.424 451.283 375.38 450.94 375.49 450.63L378.939 441.161C379.082 440.762 379.464 440.497 379.891 440.497H383.964C384.296 440.497 384.606 440.657 384.794 440.928C384.983 441.199 385.027 441.542 384.916 441.852L381.468 451.322C381.324 451.72 380.942 451.986 380.516 451.986ZM377.887 449.961H379.808L382.52 442.516H380.599L377.887 449.961Z" fill="#0A5668"/>
<path d="M387.374 450.973H391.447L394.896 441.503H390.822L387.374 450.973Z" fill="#5B94A2"/>
<path d="M391.447 451.986H387.374C387.042 451.986 386.732 451.825 386.543 451.554C386.355 451.283 386.311 450.94 386.422 450.63L389.87 441.161C390.014 440.762 390.396 440.497 390.822 440.497H394.896C395.228 440.497 395.538 440.657 395.726 440.928C395.914 441.199 395.958 441.542 395.848 441.852L392.399 451.322C392.255 451.72 391.874 451.986 391.447 451.986ZM388.818 449.961H390.739L393.451 442.516H391.53L388.818 449.961Z" fill="#0A5668"/>
<path d="M398.305 450.973H402.373L405.821 441.503H401.753L398.305 450.973Z" fill="#5B94A2"/>
<path d="M402.373 451.986H398.299C397.967 451.986 397.657 451.825 397.469 451.554C397.281 451.283 397.237 450.94 397.347 450.63L400.796 441.161C400.94 440.762 401.321 440.497 401.748 440.497H405.821C406.153 440.497 406.463 440.657 406.652 440.928C406.84 441.199 406.884 441.542 406.773 441.852L403.325 451.322C403.181 451.72 402.799 451.986 402.373 451.986ZM399.744 449.961H401.665L404.377 442.516H402.456L399.744 449.961Z" fill="#0A5668"/>
<path d="M409.231 450.973H413.304L416.753 441.503H412.685L409.231 450.973Z" fill="#5B94A2"/>
<path d="M413.304 451.986H409.231C408.899 451.986 408.589 451.825 408.401 451.554C408.212 451.283 408.168 450.94 408.279 450.63L411.727 441.161C411.871 440.762 412.253 440.497 412.679 440.497H416.753C417.085 440.497 417.395 440.657 417.583 440.928C417.771 441.199 417.815 441.542 417.705 441.852L414.256 451.322C414.113 451.72 413.731 451.986 413.304 451.986ZM410.675 449.961H412.596L415.308 442.516H413.387L410.675 449.961Z" fill="#0A5668"/>
<path d="M420.162 450.973H424.236L427.684 441.503H423.61L420.162 450.973Z" fill="#5B94A2"/>
<path d="M424.236 451.986H420.162C419.83 451.986 419.52 451.825 419.332 451.554C419.144 451.283 419.1 450.94 419.21 450.63L422.658 441.161C422.802 440.762 423.184 440.497 423.61 440.497H427.684C428.016 440.497 428.326 440.657 428.514 440.928C428.702 441.199 428.747 441.542 428.636 441.852L425.188 451.322C425.044 451.72 424.662 451.986 424.236 451.986ZM421.607 449.961H423.527L426.239 442.516H424.319L421.607 449.961Z" fill="#0A5668"/>
<path d="M431.093 450.973H435.167L438.615 441.503H434.542L431.093 450.973Z" fill="#5B94A2"/>
<path d="M435.167 451.986H431.093C430.761 451.986 430.451 451.825 430.263 451.554C430.075 451.283 430.031 450.94 430.141 450.63L433.59 441.161C433.734 440.762 434.115 440.497 434.542 440.497H438.615C438.947 440.497 439.257 440.657 439.446 440.928C439.634 441.199 439.678 441.542 439.567 441.852L436.119 451.322C435.975 451.72 435.593 451.986 435.167 451.986ZM432.538 449.961H434.459L437.171 442.516H435.25L432.538 449.961Z" fill="#0A5668"/>
<path d="M442.025 450.973H446.093L449.541 441.503H445.473L442.025 450.973Z" fill="#5B94A2"/>
<path d="M446.093 451.986H442.019C441.687 451.986 441.377 451.825 441.189 451.554C441.001 451.283 440.957 450.94 441.067 450.63L444.516 441.161C444.659 440.762 445.041 440.497 445.468 440.497H449.541C449.873 440.497 450.183 440.657 450.371 440.928C450.56 441.199 450.604 441.542 450.493 441.852L447.045 451.322C446.901 451.72 446.519 451.986 446.093 451.986ZM443.469 449.961H445.39L448.102 442.516H446.182L443.469 449.961Z" fill="#0A5668"/>
<path d="M452.951 450.973H457.024L460.473 441.503H456.399L452.951 450.973Z" fill="#5B94A2"/>
<path d="M457.024 451.986H452.951C452.619 451.986 452.309 451.825 452.12 451.554C451.932 451.283 451.888 450.94 451.999 450.63L455.447 441.161C455.591 440.762 455.973 440.497 456.399 440.497H460.473C460.805 440.497 461.115 440.657 461.303 440.928C461.491 441.199 461.535 441.542 461.425 441.852L457.976 451.322C457.832 451.72 457.45 451.986 457.024 451.986ZM454.395 449.961H456.316L459.028 442.516H457.107L454.395 449.961Z" fill="#0A5668"/>
<path d="M463.882 450.973H467.956L471.404 441.503H467.33L463.882 450.973Z" fill="#5B94A2"/>
<path d="M467.956 451.986H463.882C463.55 451.986 463.24 451.825 463.052 451.554C462.864 451.283 462.819 450.94 462.93 450.63L466.378 441.161C466.522 440.762 466.904 440.497 467.33 440.497H471.404C471.736 440.497 472.046 440.657 472.234 440.928C472.422 441.199 472.467 441.542 472.356 441.852L468.908 451.322C468.764 451.72 468.382 451.986 467.956 451.986ZM465.327 449.961H467.247L469.959 442.516H468.039L465.327 449.961Z" fill="#0A5668"/>
<path d="M474.813 450.973H478.887L482.335 441.503H478.262L474.813 450.973Z" fill="#5B94A2"/>
<path d="M478.887 451.986H474.813C474.481 451.986 474.171 451.825 473.983 451.554C473.795 451.283 473.751 450.94 473.861 450.63L477.31 441.161C477.453 440.762 477.835 440.497 478.262 440.497H482.335C482.667 440.497 482.977 440.657 483.165 440.928C483.354 441.199 483.398 441.542 483.287 441.852L479.839 451.322C479.695 451.72 479.313 451.986 478.887 451.986ZM476.258 449.961H478.179L480.891 442.516H478.97L476.258 449.961Z" fill="#0A5668"/>
<path d="M485.745 450.973H489.813L493.261 441.503H489.193L485.745 450.973Z" fill="#5B94A2"/>
<path d="M489.813 451.986H485.739C485.407 451.986 485.097 451.825 484.909 451.554C484.721 451.283 484.676 450.94 484.787 450.63L488.235 441.161C488.379 440.762 488.761 440.497 489.187 440.497H493.261C493.593 440.497 493.903 440.657 494.091 440.928C494.279 441.199 494.324 441.542 494.213 441.852L490.765 451.322C490.621 451.72 490.239 451.986 489.813 451.986ZM487.189 449.961H489.11L491.822 442.516H489.901L487.189 449.961Z" fill="#0A5668"/>
<path d="M496.671 450.973H500.744L504.192 441.503H500.119L496.671 450.973Z" fill="#5B94A2"/>
<path d="M500.744 451.986H496.67C496.338 451.986 496.028 451.825 495.84 451.554C495.652 451.283 495.608 450.94 495.719 450.63L499.167 441.161C499.311 440.762 499.693 440.497 500.119 440.497H504.192C504.524 440.497 504.834 440.657 505.023 440.928C505.211 441.199 505.255 441.542 505.144 441.852L501.696 451.322C501.552 451.72 501.17 451.986 500.744 451.986ZM498.115 449.961H500.036L502.748 442.516H500.827L498.115 449.961Z" fill="#0A5668"/>
<path d="M507.602 450.973H511.675L515.124 441.503H511.05L507.602 450.973Z" fill="#5B94A2"/>
<path d="M511.675 451.986H507.602C507.27 451.986 506.96 451.825 506.772 451.554C506.583 451.283 506.539 450.94 506.65 450.63L510.098 441.161C510.242 440.762 510.624 440.497 511.05 440.497H515.124C515.456 440.497 515.766 440.657 515.954 440.928C516.142 441.199 516.186 441.542 516.076 441.852L512.627 451.322C512.484 451.72 512.102 451.986 511.675 451.986ZM509.046 449.961H510.967L513.679 442.516H511.758L509.046 449.961Z" fill="#0A5668"/>
<path d="M518.533 450.973H522.607L526.055 441.503H521.981L518.533 450.973Z" fill="#5B94A2"/>
<path d="M522.607 451.986H518.533C518.201 451.986 517.891 451.825 517.703 451.554C517.515 451.283 517.47 450.94 517.581 450.63L521.029 441.161C521.173 440.762 521.555 440.497 521.981 440.497H526.055C526.387 440.497 526.697 440.657 526.885 440.928C527.073 441.199 527.118 441.542 527.007 441.852L523.559 451.322C523.415 451.72 523.033 451.986 522.607 451.986ZM519.978 449.961H521.898L524.61 442.516H522.69L519.978 449.961Z" fill="#0A5668"/>
<path d="M529.464 450.973H533.533L536.981 441.503H532.913L529.464 450.973Z" fill="#5B94A2"/>
<path d="M533.538 451.986H529.464C529.132 451.986 528.822 451.825 528.634 451.554C528.446 451.283 528.402 450.94 528.512 450.63L531.961 441.161C532.105 440.762 532.486 440.497 532.913 440.497H536.986C537.318 440.497 537.628 440.657 537.817 440.928C538.005 441.199 538.049 441.542 537.938 441.852L534.49 451.322C534.346 451.72 533.964 451.986 533.538 451.986ZM530.909 449.961H532.83L535.542 442.516H533.621L530.909 449.961Z" fill="#0A5668"/>
<path d="M540.39 450.973H544.464L547.912 441.503H543.839L540.39 450.973Z" fill="#5B94A2"/>
<path d="M544.464 451.986H540.39C540.058 451.986 539.748 451.825 539.56 451.554C539.372 451.283 539.328 450.94 539.438 450.63L542.887 441.161C543.03 440.762 543.412 440.497 543.839 440.497H547.912C548.244 440.497 548.554 440.657 548.742 440.928C548.931 441.199 548.975 441.542 548.864 441.852L545.416 451.322C545.272 451.72 544.89 451.986 544.464 451.986ZM541.835 449.961H543.756L546.468 442.516H544.547L541.835 449.961Z" fill="#0A5668"/>
<path d="M551.322 450.973H555.395L558.844 441.503H554.77L551.322 450.973Z" fill="#5B94A2"/>
<path d="M555.395 451.986H551.322C550.99 451.986 550.68 451.825 550.492 451.554C550.303 451.283 550.259 450.94 550.37 450.63L553.818 441.161C553.962 440.762 554.344 440.497 554.77 440.497H558.844C559.176 440.497 559.486 440.657 559.674 440.928C559.862 441.199 559.906 441.542 559.796 441.852L556.347 451.322C556.203 451.72 555.822 451.986 555.395 451.986ZM552.766 449.961H554.687L557.399 442.516H555.478L552.766 449.961Z" fill="#0A5668"/>
<path d="M562.253 450.973H566.327L569.775 441.503H565.701L562.253 450.973Z" fill="#5B94A2"/>
<path d="M566.327 451.986H562.253C561.921 451.986 561.611 451.825 561.423 451.554C561.235 451.283 561.19 450.94 561.301 450.63L564.749 441.161C564.893 440.762 565.275 440.497 565.701 440.497H569.775C570.107 440.497 570.417 440.657 570.605 440.928C570.793 441.199 570.838 441.542 570.727 441.852L567.279 451.322C567.135 451.72 566.753 451.986 566.327 451.986ZM563.698 449.961H565.618L568.33 442.516H566.41L563.698 449.961Z" fill="#0A5668"/>
<path d="M573.184 450.973H577.252L580.701 441.503H576.633L573.184 450.973Z" fill="#5B94A2"/>
<path d="M577.253 451.986H573.179C572.847 451.986 572.537 451.825 572.349 451.554C572.161 451.283 572.116 450.94 572.227 450.63L575.675 441.161C575.819 440.762 576.201 440.497 576.627 440.497H580.701C581.033 440.497 581.343 440.657 581.531 440.928C581.719 441.199 581.764 441.542 581.653 441.852L578.205 451.322C578.061 451.72 577.679 451.986 577.253 451.986ZM574.629 449.961H576.55L579.262 442.516H577.341L574.629 449.961Z" fill="#0A5668"/>
<path d="M584.11 450.973H588.184L591.632 441.503H587.558L584.11 450.973Z" fill="#5B94A2"/>
<path d="M588.184 451.986H584.11C583.778 451.986 583.468 451.825 583.28 451.554C583.092 451.283 583.048 450.94 583.158 450.63L586.606 441.161C586.75 440.762 587.132 440.497 587.558 440.497H591.632C591.964 440.497 592.274 440.657 592.462 440.928C592.651 441.199 592.695 441.542 592.584 441.852L589.136 451.322C588.992 451.72 588.61 451.986 588.184 451.986ZM585.555 449.961H587.475L590.188 442.516H588.267L585.555 449.961Z" fill="#0A5668"/>
<path d="M595.042 450.973H599.115L602.563 441.503H598.49L595.042 450.973Z" fill="#5B94A2"/>
<path d="M599.115 451.986H595.042C594.709 451.986 594.4 451.825 594.211 451.554C594.023 451.283 593.979 450.94 594.09 450.63L597.538 441.161C597.682 440.762 598.064 440.497 598.49 440.497H602.564C602.896 440.497 603.206 440.657 603.394 440.928C603.582 441.199 603.626 441.542 603.515 441.852L600.067 451.322C599.923 451.72 599.541 451.986 599.115 451.986ZM596.486 449.961H598.407L601.119 442.516H599.198L596.486 449.961Z" fill="#0A5668"/>
<path d="M605.973 450.973H610.047L613.495 441.503H609.421L605.973 450.973Z" fill="#5B94A2"/>
<path d="M610.041 451.986H605.967C605.635 451.986 605.325 451.825 605.137 451.554C604.949 451.283 604.905 450.94 605.015 450.63L608.464 441.161C608.607 440.762 608.989 440.497 609.416 440.497H613.489C613.821 440.497 614.131 440.657 614.32 440.928C614.508 441.199 614.552 441.542 614.441 441.852L610.993 451.322C610.849 451.72 610.467 451.986 610.041 451.986ZM607.417 449.961H609.338L612.05 442.516H610.13L607.417 449.961Z" fill="#0A5668"/>
<path d="M616.904 450.973H620.972L623.07 445.215V441.503H620.353L616.904 450.973Z" fill="#5B94A2"/>
<path d="M620.978 451.986H616.904C616.572 451.986 616.262 451.825 616.074 451.554C615.886 451.283 615.842 450.94 615.952 450.63L619.4 441.161C619.544 440.762 619.926 440.497 620.353 440.497H623.07C623.629 440.497 624.083 440.95 624.083 441.509V445.221C624.083 445.337 624.061 445.453 624.022 445.564L621.924 451.316C621.781 451.715 621.399 451.98 620.972 451.98L620.978 451.986ZM618.343 449.961H620.264L622.057 445.038V442.516H621.061L618.349 449.961H618.343Z" fill="#0A5668"/>
<path d="M54.3578 336.963H46.3932V346.937H54.3578V336.963Z" fill="#D4E3FC"/>
<path d="M54.3579 347.943H46.3932C45.8342 347.943 45.3803 347.49 45.3803 346.931V336.958C45.3803 336.399 45.8342 335.946 46.3932 335.946H54.3579C54.9169 335.946 55.3707 336.399 55.3707 336.958V346.931C55.3707 347.49 54.9169 347.943 54.3579 347.943ZM47.4061 345.924H53.345V337.976H47.4061V345.924Z" fill="#0A5668"/>
<path d="M285.693 162.931H277.728V172.904H285.693V162.931Z" fill="#D4E3FC"/>
<path d="M285.693 173.916H277.728C277.169 173.916 276.715 173.463 276.715 172.904V162.931C276.715 162.372 277.169 161.919 277.728 161.919H285.693C286.252 161.919 286.706 162.372 286.706 162.931V172.904C286.706 173.463 286.252 173.916 285.693 173.916ZM278.741 171.892H284.68V163.943H278.741V171.892Z" fill="#0A5668"/>
<path d="M511.46 143.515H503.495V153.489H511.46V143.515Z" fill="#D4E3FC"/>
<path d="M511.46 154.495H503.495C502.936 154.495 502.482 154.042 502.482 153.483V143.51C502.482 142.951 502.936 142.497 503.495 142.497H511.46C512.019 142.497 512.473 142.951 512.473 143.51V153.483C512.473 154.042 512.019 154.495 511.46 154.495ZM504.508 152.476H510.447V144.527H504.508V152.476Z" fill="#0A5668"/>
<path d="M14.053 414.482H6.08835V424.455H14.053V414.482Z" fill="#D4E3FC"/>
<path d="M14.053 425.468H6.08835C5.52933 425.468 5.07547 425.014 5.07547 424.455V414.482C5.07547 413.923 5.52933 413.47 6.08835 413.47H14.053C14.612 413.47 15.0659 413.923 15.0659 414.482V424.455C15.0659 425.014 14.612 425.468 14.053 425.468ZM7.10123 423.443H13.0401V415.494H7.10123V423.443Z" fill="#0A5668"/>
<path d="M686.987 312.343H679.022V322.316H686.987V312.343Z" fill="#D4E3FC"/>
<path d="M686.987 323.328H679.022C678.463 323.328 678.009 322.875 678.009 322.316V312.343C678.009 311.784 678.463 311.33 679.022 311.33H686.987C687.546 311.33 687.999 311.784 687.999 312.343V322.316C687.999 322.875 687.546 323.328 686.987 323.328ZM680.035 321.304H685.974V313.355H680.035V321.304Z" fill="#0A5668"/>
<path d="M103.95 134.632H93.9708V142.591H103.95V134.632Z" fill="#D4E3FC"/>
<path d="M103.95 143.604H93.9708C93.4118 143.604 92.9579 143.15 92.9579 142.591V134.632C92.9579 134.073 93.4118 133.619 93.9708 133.619H103.95C104.509 133.619 104.963 134.073 104.963 134.632V142.591C104.963 143.15 104.509 143.604 103.95 143.604ZM94.9837 141.579H102.937V135.644H94.9837V141.579Z" fill="#0A5668"/>
<path d="M498.403 234.553C497.844 234.553 497.39 234.099 497.39 233.541V223.772C497.39 223.213 497.844 222.76 498.403 222.76C498.962 222.76 499.416 223.213 499.416 223.772V233.541C499.416 234.099 498.962 234.553 498.403 234.553Z" fill="#0A5668"/>
<path d="M503.29 229.669H493.521C492.962 229.669 492.508 229.215 492.508 228.656C492.508 228.098 492.962 227.644 493.521 227.644H503.29C503.849 227.644 504.303 228.098 504.303 228.656C504.303 229.215 503.849 229.669 503.29 229.669Z" fill="#0A5668"/>
<path d="M654.53 239.432C653.971 239.432 653.517 238.978 653.517 238.419V228.651C653.517 228.092 653.971 227.638 654.53 227.638C655.089 227.638 655.543 228.092 655.543 228.651V238.419C655.543 238.978 655.089 239.432 654.53 239.432Z" fill="#0A5668"/>
<path d="M659.417 234.553H649.643C649.084 234.553 648.63 234.099 648.63 233.541C648.63 232.982 649.084 232.528 649.643 232.528H659.417C659.976 232.528 660.43 232.982 660.43 233.541C660.43 234.099 659.976 234.553 659.417 234.553Z" fill="#0A5668"/>
<path d="M196.653 156.066C196.094 156.066 195.641 155.613 195.641 155.054V145.285C195.641 144.727 196.094 144.273 196.653 144.273C197.213 144.273 197.666 144.727 197.666 145.285V155.054C197.666 155.613 197.213 156.066 196.653 156.066Z" fill="#0A5668"/>
<path d="M201.541 151.182H191.772C191.213 151.182 190.759 150.728 190.759 150.17C190.759 149.611 191.213 149.157 191.772 149.157H201.541C202.1 149.157 202.554 149.611 202.554 150.17C202.554 150.728 202.1 151.182 201.541 151.182Z" fill="#0A5668"/>
<path d="M40.9746 278.905C40.4155 278.905 39.9617 278.451 39.9617 277.892V268.124C39.9617 267.565 40.4155 267.111 40.9746 267.111C41.5336 267.111 41.9874 267.565 41.9874 268.124V277.892C41.9874 278.451 41.5336 278.905 40.9746 278.905Z" fill="#0A5668"/>
<path d="M45.8563 274.02H36.0873C35.5283 274.02 35.0744 273.567 35.0744 273.008C35.0744 272.449 35.5283 271.996 36.0873 271.996H45.8563C46.4153 271.996 46.8692 272.449 46.8692 273.008C46.8692 273.567 46.4153 274.02 45.8563 274.02Z" fill="#0A5668"/>
<path d="M611.375 364.82C610.816 364.82 610.362 364.366 610.362 363.808V354.045C610.362 353.486 610.816 353.032 611.375 353.032C611.934 353.032 612.388 353.486 612.388 354.045V363.808C612.388 364.366 611.934 364.82 611.375 364.82Z" fill="#0A5668"/>
<path d="M616.262 359.936H606.488C605.929 359.936 605.475 359.482 605.475 358.923C605.475 358.365 605.929 357.911 606.488 357.911H616.262C616.821 357.911 617.275 358.365 617.275 358.923C617.275 359.482 616.821 359.936 616.262 359.936Z" fill="#0A5668"/>
<path d="M109.944 493.594C109.385 493.594 108.932 493.14 108.932 492.581V482.813C108.932 482.254 109.385 481.801 109.944 481.801C110.503 481.801 110.957 482.254 110.957 482.813V492.581C110.957 493.14 110.503 493.594 109.944 493.594Z" fill="#0A5668"/>
<path d="M114.832 488.715H105.057C104.498 488.715 104.044 488.261 104.044 487.703C104.044 487.144 104.498 486.69 105.057 486.69H114.832C115.391 486.69 115.845 487.144 115.845 487.703C115.845 488.261 115.391 488.715 114.832 488.715Z" fill="#0A5668"/>
<path d="M584.608 417.746H540.844C540.285 417.746 539.831 417.292 539.831 416.733V372.996C539.831 372.437 540.285 371.983 540.844 371.983H584.608C585.167 371.983 585.621 372.437 585.621 372.996V416.733C585.621 417.292 585.167 417.746 584.608 417.746ZM541.857 415.727H583.595V374.013H541.857V415.727Z" fill="#0A5668"/>
<path d="M540.844 417.746C540.584 417.746 540.324 417.646 540.125 417.452C539.732 417.06 539.732 416.413 540.125 416.02L583.889 372.282C584.282 371.889 584.929 371.889 585.322 372.282C585.715 372.675 585.715 373.322 585.322 373.715L541.558 417.452C541.359 417.652 541.099 417.746 540.839 417.746H540.844Z" fill="#0A5668"/>
<path d="M584.608 374.013H540.844C540.285 374.013 539.831 373.56 539.831 373.001V329.263C539.831 328.705 540.285 328.251 540.844 328.251H584.608C585.167 328.251 585.621 328.705 585.621 329.263V373.001C585.621 373.56 585.167 374.013 584.608 374.013ZM541.857 371.989H583.595V330.27H541.857V371.989Z" fill="#0A5668"/>
<path d="M540.844 374.013C540.584 374.013 540.324 373.914 540.125 373.72C539.732 373.328 539.732 372.68 540.125 372.288L583.889 328.55C584.282 328.157 584.929 328.157 585.322 328.55C585.715 328.943 585.715 329.59 585.322 329.983L541.558 373.72C541.359 373.919 541.099 374.013 540.839 374.013H540.844Z" fill="#0A5668"/>
<path d="M584.608 330.27H540.844C540.285 330.27 539.831 329.817 539.831 329.258V285.52C539.831 284.962 540.285 284.508 540.844 284.508H584.608C585.167 284.508 585.621 284.962 585.621 285.52V329.258C585.621 329.817 585.167 330.27 584.608 330.27ZM541.857 328.251H583.595V286.538H541.857V328.251Z" fill="#0A5668"/>
<path d="M540.844 330.27C540.584 330.27 540.324 330.171 540.125 329.977C539.732 329.584 539.732 328.937 540.125 328.544L583.889 284.807C584.282 284.414 584.929 284.414 585.322 284.807C585.715 285.199 585.715 285.847 585.322 286.239L541.558 329.977C541.359 330.176 541.099 330.27 540.839 330.27H540.844Z" fill="#0A5668"/>
<path d="M584.608 286.532H540.844C540.285 286.532 539.831 286.079 539.831 285.52V241.783C539.831 241.224 540.285 240.77 540.844 240.77H584.608C585.167 240.77 585.621 241.224 585.621 241.783V285.52C585.621 286.079 585.167 286.532 584.608 286.532ZM541.857 284.513H583.595V242.8H541.857V284.513Z" fill="#0A5668"/>
<path d="M540.844 286.532C540.584 286.532 540.324 286.433 540.125 286.239C539.732 285.847 539.732 285.199 540.125 284.807L583.889 241.069C584.282 240.676 584.929 240.676 585.322 241.069C585.715 241.462 585.715 242.103 585.322 242.502L541.558 286.239C541.359 286.438 541.099 286.532 540.839 286.532H540.844Z" fill="#0A5668"/>
<path d="M584.608 242.8H540.844C540.285 242.8 539.831 242.347 539.831 241.788V198.05C539.831 197.492 540.285 197.038 540.844 197.038H584.608C585.167 197.038 585.621 197.492 585.621 198.05V241.788C585.621 242.347 585.167 242.8 584.608 242.8ZM541.857 240.776H583.595V199.063H541.857V240.776Z" fill="#0A5668"/>
<path d="M540.844 242.8C540.584 242.8 540.324 242.701 540.125 242.502C539.732 242.109 539.732 241.467 540.125 241.069L583.889 197.331C584.282 196.939 584.929 196.939 585.322 197.331C585.715 197.724 585.715 198.366 585.322 198.764L541.558 242.502C541.359 242.701 541.099 242.8 540.839 242.8H540.844Z" fill="#0A5668"/>
<path d="M584.608 199.063H540.844C540.285 199.063 539.831 198.609 539.831 198.05V154.313C539.831 153.754 540.285 153.3 540.844 153.3H584.608C585.167 153.3 585.621 153.754 585.621 154.313V198.05C585.621 198.609 585.167 199.063 584.608 199.063ZM541.857 197.038H583.595V155.325H541.857V197.038Z" fill="#0A5668"/>
<path d="M540.844 199.063C540.584 199.063 540.324 198.963 540.125 198.764C539.732 198.371 539.732 197.73 540.125 197.331L583.889 153.594C584.282 153.201 584.929 153.201 585.322 153.594C585.715 153.986 585.715 154.628 585.322 155.026L541.558 198.764C541.359 198.963 541.099 199.063 540.839 199.063H540.844Z" fill="#0A5668"/>
<path d="M584.608 155.325H540.844C540.285 155.325 539.831 154.871 539.831 154.313V110.575C539.831 110.016 540.285 109.563 540.844 109.563H584.608C585.167 109.563 585.621 110.016 585.621 110.575V154.313C585.621 154.871 585.167 155.325 584.608 155.325ZM541.857 153.3H583.595V111.587H541.857V153.3Z" fill="#0A5668"/>
<path d="M540.844 155.325C540.584 155.325 540.324 155.225 540.125 155.026C539.732 154.634 539.732 153.992 540.125 153.594L583.889 109.856C584.282 109.463 584.929 109.463 585.322 109.856C585.715 110.249 585.715 110.89 585.322 111.289L541.558 155.026C541.359 155.225 541.099 155.325 540.839 155.325H540.844Z" fill="#0A5668"/>
<path d="M408.799 124.73H327.149C325.527 124.73 324.21 123.414 324.21 121.793C324.21 120.172 325.527 118.856 327.149 118.856H408.799C410.421 118.856 411.738 120.172 411.738 121.793C411.738 123.414 410.421 124.73 408.799 124.73Z" fill="#DFE9FA"/>
<path d="M408.805 125.742H327.149C324.968 125.742 323.197 123.972 323.197 121.793C323.197 119.613 324.968 117.843 327.149 117.843H408.805C410.98 117.843 412.751 119.613 412.751 121.793C412.751 123.972 410.98 125.742 408.805 125.742ZM327.149 119.868C326.086 119.868 325.223 120.731 325.223 121.793C325.223 122.855 326.086 123.718 327.149 123.718H408.805C409.867 123.718 410.731 122.855 410.731 121.793C410.731 120.731 409.867 119.868 408.805 119.868H327.149Z" fill="#0A5668"/>
<path d="M366.546 229.685H339.824C339.265 229.685 338.811 229.232 338.811 228.673C338.811 228.114 339.265 227.661 339.824 227.661H366.546C367.105 227.661 367.559 228.114 367.559 228.673C367.559 229.232 367.105 229.685 366.546 229.685Z" fill="#0A5668"/>
<path d="M353.954 243.824L366.546 222.03C366.712 221.736 366.502 221.371 366.164 221.371H340.206C339.868 221.371 339.658 221.736 339.824 222.03L352.415 243.824C352.759 244.416 353.611 244.416 353.949 243.824H353.954Z" fill="#5B94A2"/>
<path d="M363.225 223.39L363.319 223.556L355.172 237.656C354.574 238.69 353.583 238.807 353.185 238.807C352.786 238.807 351.796 238.696 351.198 237.662L343.051 223.562L343.145 223.396H363.225M363.225 221.371H343.145C341.501 221.371 340.471 223.152 341.296 224.574L349.443 238.674C350.273 240.112 351.729 240.831 353.185 240.831C354.641 240.831 356.096 240.112 356.926 238.674L365.074 224.574C365.893 223.152 364.869 221.371 363.225 221.371Z" fill="#0A5668"/>
<path d="M353.185 259.561C349.012 259.561 345.613 256.164 345.613 251.994C345.613 248.166 348.475 244.991 352.172 244.493V240.831C352.172 240.272 352.626 239.819 353.185 239.819C353.744 239.819 354.198 240.272 354.198 240.831V245.439C354.198 245.998 353.744 246.451 353.185 246.451C350.124 246.451 347.639 248.94 347.639 251.994C347.639 255.047 350.13 257.536 353.185 257.536C356.24 257.536 358.731 255.047 358.731 251.994C358.731 251.435 359.185 250.981 359.744 250.981C360.303 250.981 360.757 251.435 360.757 251.994C360.757 256.164 357.358 259.561 353.185 259.561Z" fill="#0A5668"/>
<path d="M333.829 223.7C333.27 223.7 332.817 223.246 332.817 222.688V124.736C332.817 124.177 333.27 123.723 333.829 123.723C334.388 123.723 334.842 124.177 334.842 124.736V222.688C334.842 223.246 334.388 223.7 333.829 223.7Z" fill="#0A5668"/>
<path d="M339.824 228.678C343.134 228.678 345.818 225.996 345.818 222.688C345.818 219.379 343.134 216.697 339.824 216.697C336.513 216.697 333.829 219.379 333.829 222.688C333.829 225.996 336.513 228.678 339.824 228.678Z" fill="#DFE9FA"/>
<path d="M339.824 229.685C335.96 229.685 332.822 226.543 332.822 222.688C332.822 218.832 335.966 215.69 339.824 215.69C343.681 215.69 346.831 218.832 346.831 222.688C346.831 226.543 343.687 229.685 339.824 229.685ZM339.824 217.709C337.078 217.709 334.842 219.944 334.842 222.688C334.842 225.431 337.078 227.666 339.824 227.666C342.569 227.666 344.805 225.431 344.805 222.688C344.805 219.944 342.569 217.709 339.824 217.709Z" fill="#0A5668"/>
<path d="M339.824 226.604C337.66 226.604 335.905 224.845 335.905 222.688C335.905 220.53 337.665 218.771 339.824 218.771C341.982 218.771 343.742 220.53 343.742 222.688C343.742 224.845 341.982 226.604 339.824 226.604Z" fill="#5B94A2"/>
<path d="M339.824 220.79C340.87 220.79 341.717 221.642 341.717 222.682C341.717 223.722 340.864 224.58 339.824 224.58C338.783 224.58 337.925 223.728 337.925 222.682C337.925 221.637 338.778 220.79 339.824 220.79ZM339.824 218.771C337.66 218.771 335.905 220.53 335.905 222.688C335.905 224.845 337.665 226.604 339.824 226.604C341.982 226.604 343.742 224.845 343.742 222.688C343.742 220.53 341.982 218.771 339.824 218.771Z" fill="#0A5668"/>
<path d="M372.535 223.7C371.976 223.7 371.522 223.246 371.522 222.688V124.736C371.522 124.177 371.976 123.723 372.535 123.723C373.094 123.723 373.548 124.177 373.548 124.736V222.688C373.548 223.246 373.094 223.7 372.535 223.7Z" fill="#0A5668"/>
<path d="M366.546 228.678C369.857 228.678 372.54 225.996 372.54 222.688C372.54 219.379 369.857 216.697 366.546 216.697C363.235 216.697 360.552 219.379 360.552 222.688C360.552 225.996 363.235 228.678 366.546 228.678Z" fill="#DFE9FA"/>
<path d="M366.546 229.685C362.683 229.685 359.539 226.543 359.539 222.688C359.539 218.832 362.683 215.69 366.546 215.69C370.409 215.69 373.548 218.832 373.548 222.688C373.548 226.543 370.404 229.685 366.546 229.685ZM366.546 217.709C363.801 217.709 361.565 219.944 361.565 222.688C361.565 225.431 363.801 227.666 366.546 227.666C369.291 227.666 371.522 225.431 371.522 222.688C371.522 219.944 369.291 217.709 366.546 217.709Z" fill="#0A5668"/>
<path d="M366.546 226.604C368.71 226.604 370.465 224.845 370.465 222.688C370.465 220.53 368.705 218.771 366.546 218.771C364.387 218.771 362.627 220.53 362.627 222.688C362.627 224.845 364.387 226.604 366.546 226.604Z" fill="#5B94A2"/>
<path d="M366.546 220.79C367.592 220.79 368.444 221.642 368.444 222.682C368.444 223.722 367.592 224.58 366.546 224.58C365.5 224.58 364.653 223.728 364.653 222.682C364.653 221.637 365.505 220.79 366.546 220.79ZM366.546 218.771C364.387 218.771 362.627 220.53 362.627 222.688C362.627 224.845 364.387 226.604 366.546 226.604C368.705 226.604 370.465 224.845 370.465 222.688C370.465 220.53 368.705 218.771 366.546 218.771Z" fill="#0A5668"/>
<path d="M366.546 219.778H339.824C339.265 219.778 338.811 219.325 338.811 218.766C338.811 218.207 339.265 217.754 339.824 217.754H366.546C367.105 217.754 367.559 218.207 367.559 218.766C367.559 219.325 367.105 219.778 366.546 219.778Z" fill="#0A5668"/>
<path d="M632.745 116.095H698.388V157.388C698.388 158.738 697.293 159.833 695.942 159.833H635.191C633.841 159.833 632.745 158.738 632.745 157.388V116.095Z" fill="#DFE9FA"/>
<path d="M698.388 116.095H632.745V122.955H698.388V116.095Z" fill="#5B94A2"/>
<path d="M686.461 160.845H644.678C637.544 160.845 631.738 155.043 631.738 147.907V116.095C631.738 115.537 632.192 115.083 632.751 115.083H698.399C698.958 115.083 699.412 115.537 699.412 116.095V147.907C699.412 155.037 693.606 160.845 686.466 160.845H686.461ZM633.758 117.108V147.907C633.758 153.926 638.656 158.821 644.678 158.821H686.461C692.483 158.821 697.381 153.926 697.381 147.907V117.108H633.758Z" fill="#0A5668"/>
<path d="M641.534 128.807C641.28 128.807 641.031 128.713 640.831 128.525C640.427 128.138 640.416 127.501 640.804 127.092L644.014 123.746C644.401 123.342 645.038 123.331 645.448 123.718C645.852 124.105 645.863 124.741 645.475 125.151L642.265 128.497C642.066 128.702 641.8 128.807 641.534 128.807Z" fill="#0A5668"/>
<path d="M679.21 148.709C678.956 148.709 678.707 148.615 678.507 148.427C678.103 148.04 678.092 147.398 678.48 146.995L681.69 143.648C682.077 143.244 682.714 143.233 683.123 143.62C683.527 144.007 683.538 144.649 683.151 145.053L679.941 148.4C679.742 148.604 679.476 148.709 679.21 148.709Z" fill="#0A5668"/>
<path d="M667.814 156.708C667.559 156.708 667.31 156.614 667.111 156.426C666.707 156.039 666.696 155.397 667.083 154.993L670.293 151.647C670.681 151.243 671.317 151.232 671.727 151.619C672.131 152.006 672.142 152.648 671.755 153.052L668.544 156.398C668.345 156.603 668.08 156.708 667.814 156.708Z" fill="#0A5668"/>
<path d="M663.541 129.36C663.286 129.36 663.037 129.266 662.838 129.078L659.489 125.87C659.085 125.482 659.074 124.841 659.462 124.437C659.844 124.033 660.486 124.022 660.895 124.409L664.244 127.618C664.648 128.005 664.659 128.646 664.272 129.05C664.072 129.255 663.807 129.36 663.541 129.36Z" fill="#0A5668"/>
<path d="M647.374 152.283C647.119 152.283 646.87 152.189 646.671 152.001L643.322 148.792C642.918 148.405 642.907 147.763 643.294 147.36C643.682 146.956 644.318 146.945 644.728 147.332L648.077 150.54C648.481 150.927 648.492 151.569 648.104 151.973C647.905 152.178 647.639 152.283 647.374 152.283Z" fill="#0A5668"/>
<path d="M684.679 124.974C684.424 124.974 684.175 124.88 683.976 124.691L680.627 121.483C680.223 121.096 680.212 120.454 680.599 120.051C680.987 119.647 681.623 119.636 682.033 120.023L685.382 123.231C685.786 123.618 685.797 124.26 685.409 124.664C685.21 124.868 684.944 124.974 684.679 124.974Z" fill="#0A5668"/>
<path d="M649.339 139.621C648.785 139.621 648.337 139.184 648.326 138.631L648.226 133.995C648.215 133.437 648.658 132.972 649.217 132.961C649.82 132.972 650.241 133.393 650.252 133.951L650.351 138.587C650.362 139.145 649.92 139.61 649.361 139.621H649.339Z" fill="#0A5668"/>
<path d="M675.596 135.456C675.048 135.456 674.594 135.019 674.583 134.466L674.483 129.83C674.472 129.272 674.915 128.807 675.474 128.796C675.961 128.746 676.498 129.227 676.509 129.786L676.609 134.421C676.62 134.98 676.177 135.445 675.618 135.456H675.596Z" fill="#0A5668"/>
<path d="M659.55 145.363C659.002 145.363 658.554 144.931 658.538 144.378C658.521 143.819 658.964 143.355 659.523 143.338L664.161 143.2C664.676 143.134 665.185 143.62 665.201 144.185C665.218 144.743 664.775 145.208 664.216 145.224L659.578 145.363H659.55Z" fill="#0A5668"/>
<path d="M688.121 136.584C687.573 136.584 687.125 136.153 687.108 135.6C687.092 135.041 687.535 134.576 688.094 134.56L692.732 134.421C693.241 134.377 693.756 134.842 693.772 135.406C693.789 135.965 693.346 136.429 692.787 136.446L688.149 136.584H688.121Z" fill="#0A5668"/>
<path d="M584.608 111.587H540.844C540.285 111.587 539.831 111.134 539.831 110.575V66.8373C539.831 66.428 540.08 66.0574 540.457 65.9025C540.839 65.7476 541.265 65.8306 541.564 66.1237L585.328 109.861C585.616 110.149 585.704 110.586 585.549 110.962C585.389 111.338 585.023 111.587 584.614 111.587H584.608ZM541.857 109.563H582.167L541.857 69.2767V109.563Z" fill="#0A5668"/>
<path d="M610.86 111.587H567.096C566.686 111.587 566.321 111.338 566.161 110.962C566.006 110.586 566.094 110.149 566.382 109.861L610.146 66.1237C610.44 65.8306 610.866 65.7476 611.253 65.9025C611.63 66.0574 611.879 66.428 611.879 66.8373V110.575C611.879 111.134 611.425 111.587 610.866 111.587H610.86ZM569.542 109.563H609.853V69.2767L569.542 109.563Z" fill="#0A5668"/>
<path d="M540.844 111.587H497.08C496.521 111.587 496.067 111.134 496.067 110.575V66.8373C496.067 66.2786 496.521 65.825 497.08 65.825H540.844C541.403 65.825 541.857 66.2786 541.857 66.8373V110.575C541.857 111.134 541.403 111.587 540.844 111.587ZM498.093 109.563H539.831V67.8496H498.093V109.563Z" fill="#0A5668"/>
<path d="M497.08 111.587C496.82 111.587 496.56 111.488 496.361 111.289C495.968 110.896 495.968 110.254 496.361 109.856L540.125 66.1182C540.518 65.7255 541.165 65.7255 541.558 66.1182C541.951 66.5109 541.951 67.1526 541.558 67.5509L497.794 111.289C497.595 111.488 497.335 111.587 497.075 111.587H497.08Z" fill="#0A5668"/>
<path d="M654.63 111.587H610.866C610.307 111.587 609.853 111.134 609.853 110.575V66.8373C609.853 66.2786 610.307 65.825 610.866 65.825H654.63C655.189 65.825 655.643 66.2786 655.643 66.8373V110.575C655.643 111.134 655.189 111.587 654.63 111.587ZM611.873 109.563H653.617V67.8496H611.873V109.563Z" fill="#0A5668"/>
<path d="M610.86 111.587C610.6 111.587 610.34 111.488 610.141 111.289C609.748 110.896 609.748 110.254 610.141 109.856L653.905 66.1182C654.298 65.7255 654.945 65.7255 655.338 66.1182C655.731 66.5109 655.731 67.1526 655.338 67.5509L611.574 111.289C611.375 111.488 611.115 111.587 610.855 111.587H610.86Z" fill="#0A5668"/>
<path d="M698.394 111.587H654.63C654.071 111.587 653.617 111.134 653.617 110.575V66.8373C653.617 66.428 653.866 66.0574 654.242 65.9025C654.624 65.7476 655.05 65.8306 655.349 66.1237L699.113 109.861C699.401 110.149 699.49 110.586 699.335 110.962C699.174 111.338 698.809 111.587 698.399 111.587H698.394ZM655.643 109.563H695.953L655.643 69.2767V109.563Z" fill="#0A5668"/>
<path d="M497.08 111.587H453.316C452.757 111.587 452.303 111.134 452.303 110.575V66.8373C452.303 66.2786 452.757 65.825 453.316 65.825H497.08C497.639 65.825 498.093 66.2786 498.093 66.8373V110.575C498.093 111.134 497.639 111.587 497.08 111.587ZM454.329 109.563H496.067V67.8496H454.329V109.563Z" fill="#0A5668"/>
<path d="M453.316 111.587C453.056 111.587 452.796 111.488 452.596 111.289C452.203 110.896 452.203 110.254 452.596 109.856L496.361 66.1182C496.754 65.7255 497.401 65.7255 497.794 66.1182C498.187 66.5109 498.187 67.1526 497.794 67.5509L454.03 111.289C453.831 111.488 453.571 111.587 453.31 111.587H453.316Z" fill="#0A5668"/>
<path d="M453.316 111.587H409.552C408.993 111.587 408.539 111.134 408.539 110.575V66.8373C408.539 66.2786 408.993 65.825 409.552 65.825H453.316C453.875 65.825 454.329 66.2786 454.329 66.8373V110.575C454.329 111.134 453.875 111.587 453.316 111.587ZM410.565 109.563H452.303V67.8496H410.565V109.563Z" fill="#0A5668"/>
<path d="M409.552 111.587C409.292 111.587 409.032 111.488 408.832 111.289C408.439 110.896 408.439 110.254 408.832 109.856L452.596 66.1182C452.989 65.7255 453.637 65.7255 454.03 66.1182C454.423 66.5109 454.423 67.1526 454.03 67.5509L410.266 111.289C410.067 111.488 409.806 111.587 409.546 111.587H409.552Z" fill="#0A5668"/>
<path d="M409.552 111.587H365.788C365.229 111.587 364.775 111.134 364.775 110.575V66.8373C364.775 66.2786 365.229 65.825 365.788 65.825H409.552C410.111 65.825 410.565 66.2786 410.565 66.8373V110.575C410.565 111.134 410.111 111.587 409.552 111.587ZM366.801 109.563H408.545V67.8496H366.801V109.563Z" fill="#0A5668"/>
<path d="M365.788 111.587C365.528 111.587 365.267 111.488 365.068 111.289C364.675 110.896 364.675 110.254 365.068 109.856L408.832 66.1182C409.225 65.7255 409.873 65.7255 410.266 66.1182C410.659 66.5109 410.659 67.1526 410.266 67.5509L366.502 111.289C366.302 111.488 366.042 111.587 365.782 111.587H365.788Z" fill="#0A5668"/>
<path d="M365.788 111.587H322.024C321.614 111.587 321.243 111.338 321.088 110.962C320.933 110.586 321.016 110.149 321.31 109.861L365.074 66.1237C365.367 65.8306 365.793 65.7476 366.181 65.9025C366.557 66.0574 366.806 66.428 366.806 66.8373V110.575C366.806 111.134 366.352 111.587 365.793 111.587H365.788ZM324.47 109.563H364.78V69.2767L324.47 109.563Z" fill="#0A5668"/>
<path d="M365.788 67.8496C365.35 67.8496 364.952 67.5675 364.819 67.1305C364.659 66.5939 364.963 66.0297 365.494 65.8693L582.926 0.210194C583.457 0.0442483 584.022 0.348482 584.188 0.885039C584.348 1.4216 584.044 1.98581 583.512 2.14622L366.087 67.8053C365.987 67.833 365.893 67.8496 365.793 67.8496H365.788Z" fill="#0A5668"/>
<path d="M654.63 67.8496C654.375 67.8496 654.121 67.7555 653.921 67.5619L587.824 3.19722C587.426 2.81001 587.415 2.16836 587.808 1.76456C588.195 1.36629 588.837 1.35522 589.241 1.74796L655.338 66.1127C655.737 66.4999 655.748 67.1415 655.355 67.5453C655.156 67.75 654.896 67.8496 654.63 67.8496Z" fill="#0A5668"/>
<path d="M584.608 111.587H540.844C540.285 111.587 539.831 111.134 539.831 110.575V66.8373C539.831 66.6216 539.898 66.4114 540.025 66.2399L583.789 6.40549C584.049 6.05148 584.509 5.90213 584.918 6.04041C585.333 6.1787 585.616 6.56591 585.616 7.0029V110.575C585.616 111.134 585.162 111.587 584.603 111.587H584.608ZM541.857 109.563H583.595V10.095L541.857 67.1637V109.563Z" fill="#0A5668"/>
<path d="M540.844 111.587C540.711 111.587 540.579 111.56 540.451 111.51C539.936 111.294 539.693 110.697 539.909 110.182L583.673 6.61016C583.889 6.09573 584.492 5.85787 585.001 6.0736C585.516 6.28933 585.76 6.88674 585.544 7.40117L541.78 110.973C541.614 111.36 541.243 111.593 540.844 111.593V111.587Z" fill="#0A5668"/>
<path d="M578.614 7.0029C578.614 3.69505 581.298 1.01227 584.608 1.01227C587.918 1.01227 590.603 3.69505 590.603 7.0029C590.603 10.3107 587.918 12.9935 584.608 12.9935C581.298 12.9935 578.614 10.3107 578.614 7.0029Z" fill="#DFE9FA"/>
<path d="M584.608 14.0003C580.745 14.0003 577.607 10.8584 577.607 7.0029C577.607 3.14743 580.751 0.00553131 584.608 0.00553131C588.466 0.00553131 591.615 3.14743 591.615 7.0029C591.615 10.8584 588.472 14.0003 584.608 14.0003ZM584.608 2.02453C581.863 2.02453 579.632 4.25927 579.632 7.0029C579.632 9.74653 581.863 11.9813 584.608 11.9813C587.354 11.9813 589.59 9.74653 589.59 7.0029C589.59 4.25927 587.354 2.02453 584.608 2.02453Z" fill="#0A5668"/>
<path d="M584.608 10.9193C582.444 10.9193 580.69 9.16029 580.69 7.003C580.69 4.84571 582.45 3.08669 584.608 3.08669C586.767 3.08669 588.527 4.84571 588.527 7.003C588.527 9.16029 586.767 10.9193 584.608 10.9193Z" fill="#5B94A2"/>
<path d="M584.608 5.10559C585.654 5.10559 586.501 5.95744 586.501 6.99737C586.501 8.03729 585.649 8.89468 584.608 8.89468C583.568 8.89468 582.71 8.04282 582.71 6.99737C582.71 5.95191 583.562 5.10559 584.608 5.10559ZM584.608 3.08105C582.444 3.08105 580.69 4.84008 580.69 6.99737C580.69 9.15466 582.45 10.9137 584.608 10.9137C586.767 10.9137 588.527 9.15466 588.527 6.99737C588.527 4.84008 586.767 3.08105 584.608 3.08105Z" fill="#0A5668"/>
<path d="M698.388 110.575H322.024V116.101H698.388V110.575Z" fill="#5B94A2"/>
<path d="M698.394 117.108H322.024C321.465 117.108 321.011 116.654 321.011 116.095V110.569C321.011 110.011 321.465 109.557 322.024 109.557H698.394C698.953 109.557 699.407 110.011 699.407 110.569V116.095C699.407 116.654 698.953 117.108 698.394 117.108ZM323.036 115.083H697.381V111.582H323.036V115.083Z" fill="#0A5668"/>
<path d="M628.372 416.739H497.08C495.799 416.739 494.761 417.777 494.761 419.057V515.67C494.761 516.95 495.799 517.988 497.08 517.988H628.372C629.653 517.988 630.692 516.95 630.692 515.67V419.057C630.692 417.777 629.653 416.739 628.372 416.739Z" fill="#DFE9FA"/>
<path d="M620.762 416.872V507.196C620.762 509.281 619.068 510.974 616.982 510.974H495.613C497.301 515.084 501.336 517.982 506.058 517.982H619.395C625.633 517.982 630.692 512.926 630.692 506.692V428.023C630.692 422.254 626.347 417.552 620.762 416.872Z" fill="#5B94A2"/>
<path d="M619.395 519H506.058C499.272 519 493.748 513.48 493.748 506.698V428.029C493.748 421.247 499.272 415.727 506.058 415.727H619.395C626.181 415.727 631.704 421.247 631.704 428.029V506.698C631.704 513.48 626.181 519 619.395 519ZM506.058 417.746C500.384 417.746 495.774 422.353 495.774 428.023V506.692C495.774 512.362 500.384 516.97 506.058 516.97H619.395C625.068 516.97 629.679 512.362 629.679 506.692V428.023C629.679 422.353 625.068 417.746 619.395 417.746H506.058Z" fill="#0A5668"/>
<path d="M630.692 482.94H494.761C494.202 482.94 493.748 482.486 493.748 481.928C493.748 481.369 494.202 480.915 494.761 480.915H630.692C631.251 480.915 631.704 481.369 631.704 481.928C631.704 482.486 631.251 482.94 630.692 482.94Z" fill="#0A5668"/>
<path d="M573.666 432.034H551.787L540.844 450.973L551.787 469.913H573.666L584.608 450.973L573.666 432.034Z" fill="#D4E3FC"/>
<path d="M573.666 470.92H551.787C551.427 470.92 551.089 470.726 550.907 470.417L539.964 451.477C539.787 451.161 539.787 450.78 539.964 450.464L550.907 431.525C551.089 431.209 551.421 431.021 551.787 431.021H573.666C574.026 431.021 574.363 431.215 574.546 431.525L585.488 450.464C585.665 450.78 585.665 451.161 585.488 451.477L574.546 470.417C574.363 470.732 574.031 470.92 573.666 470.92ZM552.373 468.901H573.085L583.44 450.973L573.085 433.046H552.373L542.012 450.973L552.373 468.901Z" fill="#0A5668"/>
<path d="M554.975 464.387L547.226 450.973L554.975 437.56H570.478L578.227 450.973L570.478 464.387H554.975Z" fill="#5B94A2"/>
<path d="M570.478 465.394H554.98C554.62 465.394 554.283 465.2 554.1 464.891L546.351 451.477C546.174 451.161 546.174 450.78 546.351 450.465L554.1 437.051C554.283 436.735 554.615 436.547 554.98 436.547H570.478C570.838 436.547 571.175 436.741 571.358 437.051L579.107 450.465C579.284 450.78 579.284 451.161 579.107 451.477L571.358 464.891C571.175 465.206 570.843 465.394 570.478 465.394ZM555.561 463.375H569.891L577.059 450.973L569.891 438.572H555.561L548.394 450.973L555.561 463.375Z" fill="#0A5668"/>
<path d="M461.557 279.718H244.812V404.182H461.557V279.718Z" fill="#D4E3FC"/>
<path d="M461.557 405.195H244.812C244.253 405.195 243.799 404.741 243.799 404.182V279.718C243.799 279.159 244.253 278.705 244.812 278.705H461.557C462.116 278.705 462.57 279.159 462.57 279.718V404.182C462.57 404.741 462.116 405.195 461.557 405.195ZM245.825 403.17H460.544V280.73H245.825V403.17Z" fill="#0A5668"/>
<path d="M461.557 280.724C461.491 280.724 461.419 280.719 461.347 280.702L353.185 257.569L245.023 280.702C244.48 280.829 243.938 280.475 243.822 279.928C243.705 279.38 244.054 278.844 244.596 278.728L352.969 255.545C353.107 255.517 353.251 255.517 353.395 255.545L461.768 278.728C462.316 278.844 462.664 279.38 462.543 279.928C462.443 280.404 462.022 280.73 461.552 280.73L461.557 280.724Z" fill="#0A5668"/>
<path d="M356.406 287.998H253.104V395.891H356.406V287.998Z" fill="#D4E3FC"/>
<path d="M356.406 396.908H253.104C252.545 396.908 252.091 396.455 252.091 395.896V288.004C252.091 287.445 252.545 286.992 253.104 286.992H356.406C356.965 286.992 357.419 287.445 357.419 288.004V395.896C357.419 396.455 356.965 396.908 356.406 396.908ZM254.116 394.884H355.399V289.016H254.116V394.884Z" fill="#0A5668"/>
<path d="M348.12 364.178V296.285H261.4V364.178H348.12Z" fill="#5B94A2"/>
<path d="M348.115 365.191H261.395C260.836 365.191 260.382 364.737 260.382 364.178V296.285C260.382 295.726 260.836 295.272 261.395 295.272H348.115C348.674 295.272 349.128 295.726 349.128 296.285V364.178C349.128 364.737 348.674 365.191 348.115 365.191ZM262.408 363.172H347.108V297.297H262.408V363.172Z" fill="#0A5668"/>
<path d="M323.385 336.277C330.067 336.277 335.484 330.864 335.484 324.186C335.484 317.507 330.067 312.094 323.385 312.094C316.703 312.094 311.286 317.507 311.286 324.186C311.286 330.864 316.703 336.277 323.385 336.277Z" fill="#D4E3FC"/>
<path d="M323.385 337.29C316.157 337.29 310.273 331.41 310.273 324.186C310.273 316.961 316.157 311.081 323.385 311.081C330.614 311.081 336.497 316.961 336.497 324.186C336.497 331.41 330.614 337.29 323.385 337.29ZM323.385 313.106C317.275 313.106 312.299 318.079 312.299 324.186C312.299 330.292 317.275 335.265 323.385 335.265C329.496 335.265 334.471 330.292 334.471 324.186C334.471 318.079 329.496 313.106 323.385 313.106Z" fill="#0A5668"/>
<path d="M261.395 330.486C261.395 330.486 295.927 321.846 322.024 331.714C348.12 341.582 348.12 349.144 348.12 349.144V364.184H261.4V330.486H261.395Z" fill="#09809D"/>
<path d="M348.115 365.191H261.395C260.836 365.191 260.382 364.737 260.382 364.178V330.48C260.382 330.016 260.697 329.612 261.146 329.501C261.494 329.413 296.281 320.889 322.378 330.763C348.375 340.592 349.128 348.286 349.128 349.133V364.173C349.128 364.732 348.674 365.185 348.115 365.185V365.191ZM262.408 363.172H347.108V349.138C347.108 349.099 346.333 341.986 321.664 332.66C298.285 323.82 267.621 330.115 262.408 331.288V363.172Z" fill="#0A5668"/>
<path d="M311.817 372.902H261.395V376.48H311.817V372.902Z" fill="#5B94A2"/>
<path d="M311.817 377.498H261.395C260.836 377.498 260.382 377.045 260.382 376.486V372.902C260.382 372.343 260.836 371.889 261.395 371.889H311.817C312.376 371.889 312.83 372.343 312.83 372.902V376.486C312.83 377.045 312.376 377.498 311.817 377.498ZM262.408 375.474H310.804V373.914H262.408V375.474Z" fill="#0A5668"/>
<path d="M303.161 379.866H261.395V383.445H303.161V379.866Z" fill="#5B94A2"/>
<path d="M303.161 384.462H261.395C260.836 384.462 260.382 384.009 260.382 383.45V379.866C260.382 379.307 260.836 378.854 261.395 378.854H303.161C303.72 378.854 304.174 379.307 304.174 379.866V383.45C304.174 384.009 303.72 384.462 303.161 384.462ZM262.408 382.438H302.148V380.878H262.408V382.438Z" fill="#0A5668"/>
<path d="M453.028 287.998H364.941V395.891H453.028V287.998Z" fill="#D4E3FC"/>
<path d="M453.023 396.908H364.935C364.376 396.908 363.922 396.455 363.922 395.896V288.004C363.922 287.445 364.376 286.992 364.935 286.992H453.023C453.582 286.992 454.036 287.445 454.036 288.004V395.896C454.036 396.455 453.582 396.908 453.023 396.908ZM365.954 394.884H452.015V289.016H365.954V394.884Z" fill="#0A5668"/>
<path d="M444.748 296.285H374.976C374.376 296.285 373.891 296.77 373.891 297.369V342.428C373.891 343.027 374.376 343.513 374.976 343.513H444.748C445.347 343.513 445.833 343.027 445.833 342.428V297.369C445.833 296.77 445.347 296.285 444.748 296.285Z" fill="#5B94A2"/>
<path d="M440.547 344.525H379.182C375.706 344.525 372.878 341.698 372.878 338.225V301.573C372.878 298.099 375.706 295.272 379.182 295.272H440.547C444.023 295.272 446.851 298.099 446.851 301.573V338.225C446.851 341.698 444.023 344.525 440.547 344.525ZM379.182 297.297C376.824 297.297 374.904 299.216 374.904 301.573V338.225C374.904 340.581 376.824 342.5 379.182 342.5H440.547C442.905 342.5 444.825 340.581 444.825 338.225V301.573C444.825 299.216 442.905 297.297 440.547 297.297H379.182Z" fill="#0A5668"/>
<path d="M409.862 317.277C409.707 317.277 409.557 317.244 409.419 317.172L378.795 302.181C378.296 301.938 378.086 301.329 378.33 300.826C378.573 300.323 379.182 300.118 379.686 300.361L409.867 315.136L440.049 300.361C440.547 300.123 441.156 300.323 441.405 300.826C441.648 301.329 441.444 301.932 440.94 302.181L410.31 317.172C410.172 317.238 410.017 317.277 409.867 317.277H409.862Z" fill="#0A5668"/>
<path d="M445.833 355.345H373.891V358.923H445.833V355.345Z" fill="#5B94A2"/>
<path d="M445.833 359.936H373.891C373.332 359.936 372.878 359.482 372.878 358.923V355.345C372.878 354.786 373.332 354.332 373.891 354.332H445.833C446.392 354.332 446.846 354.786 446.846 355.345V358.923C446.846 359.482 446.392 359.936 445.833 359.936ZM374.904 357.911H444.82V356.357H374.904V357.911Z" fill="#0A5668"/>
<path d="M445.833 362.309H373.891V365.888H445.833V362.309Z" fill="#5B94A2"/>
<path d="M445.833 366.9H373.891C373.332 366.9 372.878 366.446 372.878 365.888V362.303C372.878 361.745 373.332 361.291 373.891 361.291H445.833C446.392 361.291 446.846 361.745 446.846 362.303V365.888C446.846 366.446 446.392 366.9 445.833 366.9ZM374.904 364.881H444.82V363.321H374.904V364.881Z" fill="#0A5668"/>
<path d="M433.485 369.273H373.891V372.852H433.485V369.273Z" fill="#5B94A2"/>
<path d="M433.485 373.864H373.891C373.332 373.864 372.878 373.41 372.878 372.852V369.273C372.878 368.714 373.332 368.261 373.891 368.261H433.485C434.044 368.261 434.497 368.714 434.497 369.273V372.852C434.497 373.41 434.044 373.864 433.485 373.864ZM374.904 371.845H432.477V370.291H374.904V371.845Z" fill="#0A5668"/>
<path d="M415.496 381.658H373.891V385.237H415.496V381.658Z" fill="#5B94A2"/>
<path d="M415.496 386.249H373.891C373.332 386.249 372.878 385.796 372.878 385.237V381.652C372.878 381.094 373.332 380.64 373.891 380.64H415.496C416.055 380.64 416.509 381.094 416.509 381.652V385.237C416.509 385.796 416.055 386.249 415.496 386.249ZM374.904 384.23H414.483V382.67H374.904V384.23Z" fill="#0A5668"/>
</g>
<defs>
<clipPath id="clip0_1_264">
<rect width="725" height="519" fill="white"/>
</clipPath>
</defs>
</svg>
